<mxfile host="app.diagrams.net" modified="2020-12-07T11:00:30.950Z" agent="5.0 (Macintosh; Intel Mac OS X 11_0_1) AppleWebKit/537.36 (KHTML, like Gecko) Chrome/87.0.4280.88 Safari/537.36" etag="WYT3BUnVIvCbhBcxkRr3" version="13.9.6" type="github">
  <diagram id="vnPq0i_LpNGZimkVIaiR" name="Page-1">
    <mxGraphModel dx="466" dy="769" grid="1" gridSize="10" guides="1" tooltips="1" connect="1" arrows="1" fold="1" page="1" pageScale="1" pageWidth="827" pageHeight="1169" math="0" shadow="0">
      <root>
        <mxCell id="0" />
        <mxCell id="1" parent="0" />
        <mxCell id="T8YdCusHvQ4XyLje6_06-46" value="" style="rounded=0;whiteSpace=wrap;html=1;" parent="1" vertex="1">
          <mxGeometry x="330" y="370" width="310" height="390" as="geometry" />
        </mxCell>
        <mxCell id="T8YdCusHvQ4XyLje6_06-25" style="edgeStyle=orthogonalEdgeStyle;rounded=0;orthogonalLoop=1;jettySize=auto;html=1;exitX=0.5;exitY=1;exitDx=0;exitDy=0;entryX=0.5;entryY=0;entryDx=0;entryDy=0;" parent="1" source="T8YdCusHvQ4XyLje6_06-1" target="T8YdCusHvQ4XyLje6_06-23" edge="1">
          <mxGeometry relative="1" as="geometry" />
        </mxCell>
        <mxCell id="T8YdCusHvQ4XyLje6_06-1" value="模型训练" style="rounded=0;whiteSpace=wrap;html=1;" parent="1" vertex="1">
          <mxGeometry x="661" y="400" width="120" height="60" as="geometry" />
        </mxCell>
        <mxCell id="T8YdCusHvQ4XyLje6_06-28" style="edgeStyle=orthogonalEdgeStyle;rounded=0;orthogonalLoop=1;jettySize=auto;html=1;exitX=1;exitY=0.5;exitDx=0;exitDy=0;entryX=0;entryY=0.5;entryDx=0;entryDy=0;" parent="1" source="T8YdCusHvQ4XyLje6_06-2" target="T8YdCusHvQ4XyLje6_06-1" edge="1">
          <mxGeometry relative="1" as="geometry" />
        </mxCell>
        <mxCell id="T8YdCusHvQ4XyLje6_06-30" style="edgeStyle=orthogonalEdgeStyle;rounded=0;orthogonalLoop=1;jettySize=auto;html=1;exitX=0.5;exitY=1;exitDx=0;exitDy=0;entryX=0.5;entryY=0;entryDx=0;entryDy=0;" parent="1" source="T8YdCusHvQ4XyLje6_06-2" target="T8YdCusHvQ4XyLje6_06-29" edge="1">
          <mxGeometry relative="1" as="geometry" />
        </mxCell>
        <mxCell id="T8YdCusHvQ4XyLje6_06-2" value="离线特征存储" style="rounded=0;whiteSpace=wrap;html=1;" parent="1" vertex="1">
          <mxGeometry x="442" y="400" width="120" height="60" as="geometry" />
        </mxCell>
        <mxCell id="T8YdCusHvQ4XyLje6_06-3" value="批数据处理&lt;br&gt;（Spark，SQL，etc)" style="rounded=0;whiteSpace=wrap;html=1;" parent="1" vertex="1">
          <mxGeometry x="22" y="400" width="110" height="60" as="geometry" />
        </mxCell>
        <mxCell id="T8YdCusHvQ4XyLje6_06-4" value="数据层" style="shape=step;perimeter=stepPerimeter;whiteSpace=wrap;html=1;fixedSize=1;" parent="1" vertex="1">
          <mxGeometry x="84" y="290" width="190" height="50" as="geometry" />
        </mxCell>
        <mxCell id="T8YdCusHvQ4XyLje6_06-5" value="特征平台" style="shape=step;perimeter=stepPerimeter;whiteSpace=wrap;html=1;fixedSize=1;" parent="1" vertex="1">
          <mxGeometry x="365" y="290" width="190" height="50" as="geometry" />
        </mxCell>
        <mxCell id="T8YdCusHvQ4XyLje6_06-6" value="模型层" style="shape=step;perimeter=stepPerimeter;whiteSpace=wrap;html=1;fixedSize=1;" parent="1" vertex="1">
          <mxGeometry x="620" y="290" width="190" height="50" as="geometry" />
        </mxCell>
        <mxCell id="T8YdCusHvQ4XyLje6_06-7" value="流式数据处理-事件日志数据" style="rounded=0;whiteSpace=wrap;html=1;" parent="1" vertex="1">
          <mxGeometry x="22" y="561" width="110" height="60" as="geometry" />
        </mxCell>
        <mxCell id="T8YdCusHvQ4XyLje6_06-47" style="edgeStyle=orthogonalEdgeStyle;rounded=0;orthogonalLoop=1;jettySize=auto;html=1;exitX=1;exitY=0.5;exitDx=0;exitDy=0;exitPerimeter=0;entryX=0;entryY=0.5;entryDx=0;entryDy=0;" parent="1" source="T8YdCusHvQ4XyLje6_06-8" edge="1">
          <mxGeometry relative="1" as="geometry">
            <mxPoint x="327" y="435" as="targetPoint" />
          </mxGeometry>
        </mxCell>
        <mxCell id="T8YdCusHvQ4XyLje6_06-8" value="Batch Data&lt;br&gt;（Hive，HDFS）" style="shape=cylinder3;whiteSpace=wrap;html=1;boundedLbl=1;backgroundOutline=1;size=15;" parent="1" vertex="1">
          <mxGeometry x="156" y="400" width="150" height="70" as="geometry" />
        </mxCell>
        <mxCell id="T8YdCusHvQ4XyLje6_06-15" style="edgeStyle=orthogonalEdgeStyle;rounded=0;orthogonalLoop=1;jettySize=auto;html=1;exitX=1;exitY=0;exitDx=0;exitDy=120;exitPerimeter=0;entryX=0.25;entryY=0;entryDx=0;entryDy=0;" parent="1" source="T8YdCusHvQ4XyLje6_06-11" target="T8YdCusHvQ4XyLje6_06-13" edge="1">
          <mxGeometry relative="1" as="geometry" />
        </mxCell>
        <mxCell id="T8YdCusHvQ4XyLje6_06-11" value="" style="shape=cylinder3;whiteSpace=wrap;html=1;boundedLbl=1;backgroundOutline=1;size=15;rotation=90;" parent="1" vertex="1">
          <mxGeometry x="212" y="506" width="40" height="170" as="geometry" />
        </mxCell>
        <mxCell id="T8YdCusHvQ4XyLje6_06-12" value="流式数据&lt;br&gt;（kafka,kinesis)" style="text;html=1;strokeColor=none;fillColor=none;align=center;verticalAlign=middle;whiteSpace=wrap;rounded=0;" parent="1" vertex="1">
          <mxGeometry x="192" y="581" width="80" height="20" as="geometry" />
        </mxCell>
        <mxCell id="T8YdCusHvQ4XyLje6_06-17" style="edgeStyle=orthogonalEdgeStyle;rounded=0;orthogonalLoop=1;jettySize=auto;html=1;exitX=0.75;exitY=0;exitDx=0;exitDy=0;entryX=0.975;entryY=0.176;entryDx=0;entryDy=0;entryPerimeter=0;" parent="1" source="T8YdCusHvQ4XyLje6_06-13" target="T8YdCusHvQ4XyLje6_06-11" edge="1">
          <mxGeometry relative="1" as="geometry" />
        </mxCell>
        <mxCell id="T8YdCusHvQ4XyLje6_06-13" value="流式数据处理&lt;br&gt;（Flink,Beam)" style="rounded=1;whiteSpace=wrap;html=1;" parent="1" vertex="1">
          <mxGeometry x="152" y="648" width="165" height="42" as="geometry" />
        </mxCell>
        <mxCell id="T8YdCusHvQ4XyLje6_06-18" value="数据同步" style="rounded=1;whiteSpace=wrap;html=1;" parent="1" vertex="1">
          <mxGeometry x="172" y="506" width="120" height="30" as="geometry" />
        </mxCell>
        <mxCell id="T8YdCusHvQ4XyLje6_06-19" value="" style="endArrow=classic;html=1;exitX=0;exitY=0.5;exitDx=0;exitDy=0;exitPerimeter=0;entryX=0.5;entryY=1;entryDx=0;entryDy=0;" parent="1" source="T8YdCusHvQ4XyLje6_06-11" target="T8YdCusHvQ4XyLje6_06-18" edge="1">
          <mxGeometry width="50" height="50" relative="1" as="geometry">
            <mxPoint x="396" y="601" as="sourcePoint" />
            <mxPoint x="446" y="551" as="targetPoint" />
          </mxGeometry>
        </mxCell>
        <mxCell id="T8YdCusHvQ4XyLje6_06-20" value="" style="endArrow=classic;html=1;entryX=0.5;entryY=1;entryDx=0;entryDy=0;entryPerimeter=0;" parent="1" target="T8YdCusHvQ4XyLje6_06-8" edge="1">
          <mxGeometry width="50" height="50" relative="1" as="geometry">
            <mxPoint x="231" y="506" as="sourcePoint" />
            <mxPoint x="281" y="456" as="targetPoint" />
          </mxGeometry>
        </mxCell>
        <mxCell id="T8YdCusHvQ4XyLje6_06-27" style="edgeStyle=orthogonalEdgeStyle;rounded=0;orthogonalLoop=1;jettySize=auto;html=1;exitX=1;exitY=0.5;exitDx=0;exitDy=0;entryX=0;entryY=0.5;entryDx=0;entryDy=0;" parent="1" source="T8YdCusHvQ4XyLje6_06-21" target="T8YdCusHvQ4XyLje6_06-22" edge="1">
          <mxGeometry relative="1" as="geometry" />
        </mxCell>
        <mxCell id="T8YdCusHvQ4XyLje6_06-21" value="在线特征存储" style="rounded=0;whiteSpace=wrap;html=1;" parent="1" vertex="1">
          <mxGeometry x="442" y="571" width="120" height="60" as="geometry" />
        </mxCell>
        <mxCell id="T8YdCusHvQ4XyLje6_06-22" value="在线服务" style="rounded=0;whiteSpace=wrap;html=1;" parent="1" vertex="1">
          <mxGeometry x="661" y="571" width="120" height="60" as="geometry" />
        </mxCell>
        <mxCell id="T8YdCusHvQ4XyLje6_06-26" style="edgeStyle=orthogonalEdgeStyle;rounded=0;orthogonalLoop=1;jettySize=auto;html=1;exitX=0.5;exitY=1;exitDx=0;exitDy=0;entryX=0.5;entryY=0;entryDx=0;entryDy=0;" parent="1" source="T8YdCusHvQ4XyLje6_06-23" target="T8YdCusHvQ4XyLje6_06-22" edge="1">
          <mxGeometry relative="1" as="geometry" />
        </mxCell>
        <mxCell id="T8YdCusHvQ4XyLje6_06-23" value="模型部署" style="rounded=1;whiteSpace=wrap;html=1;" parent="1" vertex="1">
          <mxGeometry x="661" y="500" width="120" height="30" as="geometry" />
        </mxCell>
        <mxCell id="T8YdCusHvQ4XyLje6_06-31" style="edgeStyle=orthogonalEdgeStyle;rounded=0;orthogonalLoop=1;jettySize=auto;html=1;exitX=0.5;exitY=1;exitDx=0;exitDy=0;entryX=0.5;entryY=0;entryDx=0;entryDy=0;" parent="1" source="T8YdCusHvQ4XyLje6_06-29" target="T8YdCusHvQ4XyLje6_06-21" edge="1">
          <mxGeometry relative="1" as="geometry" />
        </mxCell>
        <mxCell id="T8YdCusHvQ4XyLje6_06-29" value="特征同步" style="rounded=1;whiteSpace=wrap;html=1;" parent="1" vertex="1">
          <mxGeometry x="468" y="503.5" width="68" height="35" as="geometry" />
        </mxCell>
        <mxCell id="T8YdCusHvQ4XyLje6_06-32" value="订阅收集" style="rounded=1;whiteSpace=wrap;html=1;" parent="1" vertex="1">
          <mxGeometry x="340" y="420" width="90" height="30" as="geometry" />
        </mxCell>
        <mxCell id="T8YdCusHvQ4XyLje6_06-33" value="订阅收集" style="rounded=1;whiteSpace=wrap;html=1;" parent="1" vertex="1">
          <mxGeometry x="340" y="581" width="90" height="30" as="geometry" />
        </mxCell>
        <mxCell id="T8YdCusHvQ4XyLje6_06-34" value="特征名录" style="rounded=1;whiteSpace=wrap;html=1;" parent="1" vertex="1">
          <mxGeometry x="480" y="648" width="95" height="38" as="geometry" />
        </mxCell>
        <mxCell id="T8YdCusHvQ4XyLje6_06-35" value="特征注册" style="rounded=1;whiteSpace=wrap;html=1;" parent="1" vertex="1">
          <mxGeometry x="365" y="648" width="95" height="38" as="geometry" />
        </mxCell>
        <mxCell id="T8YdCusHvQ4XyLje6_06-36" value="特征数据源" style="rounded=1;whiteSpace=wrap;html=1;" parent="1" vertex="1">
          <mxGeometry x="366" y="700" width="95" height="38" as="geometry" />
        </mxCell>
        <mxCell id="T8YdCusHvQ4XyLje6_06-37" value="特征数据源" style="rounded=1;whiteSpace=wrap;html=1;" parent="1" vertex="1">
          <mxGeometry x="480" y="700" width="95" height="38" as="geometry" />
        </mxCell>
        <mxCell id="T8YdCusHvQ4XyLje6_06-38" value="大批量" style="text;html=1;strokeColor=none;fillColor=none;align=center;verticalAlign=middle;whiteSpace=wrap;rounded=0;" parent="1" vertex="1">
          <mxGeometry x="590" y="410" width="40" height="20" as="geometry" />
        </mxCell>
        <mxCell id="T8YdCusHvQ4XyLje6_06-39" value="低时延" style="text;html=1;strokeColor=none;fillColor=none;align=center;verticalAlign=middle;whiteSpace=wrap;rounded=0;" parent="1" vertex="1">
          <mxGeometry x="590" y="581" width="40" height="20" as="geometry" />
        </mxCell>
        <mxCell id="T8YdCusHvQ4XyLje6_06-40" value="在线特征" style="text;html=1;strokeColor=none;fillColor=none;align=center;verticalAlign=middle;whiteSpace=wrap;rounded=0;" parent="1" vertex="1">
          <mxGeometry x="590" y="601" width="50" height="20" as="geometry" />
        </mxCell>
        <mxCell id="T8YdCusHvQ4XyLje6_06-41" value="训练特征" style="text;html=1;strokeColor=none;fillColor=none;align=center;verticalAlign=middle;whiteSpace=wrap;rounded=0;" parent="1" vertex="1">
          <mxGeometry x="585" y="440" width="50" height="20" as="geometry" />
        </mxCell>
        <mxCell id="T8YdCusHvQ4XyLje6_06-43" value="" style="endArrow=classic;startArrow=classic;html=1;entryX=0.5;entryY=1;entryDx=0;entryDy=0;exitX=0.5;exitY=0;exitDx=0;exitDy=0;" parent="1" source="T8YdCusHvQ4XyLje6_06-39" target="T8YdCusHvQ4XyLje6_06-41" edge="1">
          <mxGeometry width="50" height="50" relative="1" as="geometry">
            <mxPoint x="390" y="610" as="sourcePoint" />
            <mxPoint x="440" y="560" as="targetPoint" />
          </mxGeometry>
        </mxCell>
        <mxCell id="T8YdCusHvQ4XyLje6_06-44" value="特征对齐" style="edgeLabel;html=1;align=center;verticalAlign=middle;resizable=0;points=[];" parent="T8YdCusHvQ4XyLje6_06-43" vertex="1" connectable="0">
          <mxGeometry x="0.0579" y="1" relative="1" as="geometry">
            <mxPoint as="offset" />
          </mxGeometry>
        </mxCell>
        <mxCell id="3qqZnPuphbkmfEI1Cb5F-1" value="K8s(集群）" style="rounded=0;whiteSpace=wrap;html=1;" vertex="1" parent="1">
          <mxGeometry x="160" y="1180" width="620" height="60" as="geometry" />
        </mxCell>
        <mxCell id="3qqZnPuphbkmfEI1Cb5F-2" value="基础设施" style="rounded=0;whiteSpace=wrap;html=1;" vertex="1" parent="1">
          <mxGeometry x="22" y="1180" width="120" height="60" as="geometry" />
        </mxCell>
        <mxCell id="3qqZnPuphbkmfEI1Cb5F-3" value="" style="shape=image;verticalLabelPosition=bottom;labelBackgroundColor=#ffffff;verticalAlign=top;aspect=fixed;imageAspect=0;image=data:image/png,iVBORw0KGgoAAAANSUhEUgAAAq8AAAF0CAYAAAANcNDsAAAgAElEQVR4Ae2dCbTV1Nn+K8oFLlUKxeKAVIECVbAyVASqIKCioCijMigioICgKCgiM4oDCjKIIAKCAyIUURSoCM4zjgUVP7UoKlbq0KJW/b7/2v/1bPqe5iQn9yY5OclOzpO1zs3Jzp7y7me/+d19dnZ+objRArQALUAL0AK0AC1AC9ACCbHALxJST1aTFqAFaAFagBagBWgBWoAWUIRXioAWoAVoAVqAFqAFaAFaIDEWILwmpqlYUVqAFqAFaAFagBagBWgBwis1QAvQArQALUAL0AK0AC2QGAsQXhPTVKwoLUAL0AK0AC1AC9ACtADhlRqgBWgBWoAWoAVoAVqAFkiMBQiviWkqVpQWoAVoAVqAFqAFaAFagPBKDdACtAAtQAvQArQALUALJMYChNfENBUrSgvQArQALUAL0AK0AC1AeKUGaAFagBagBWgBWoAWoAUSYwHCa2KaihWlBWgBWoAWoAVoAVqAFiC8UgO0AC1AC9ACtAAtQAvQAomxAOE1MU3FitICtAAtQAvQArQALUALEF6pAVqAFqAFaAFagBagBWiBxFiA8JqYpmJFaQFagBagBWgBWoAWoAUIr9QALUAL0AK0AC1AC9ACtEBiLEB4TUxTsaK0AC1AC9ACtAAtQAvQAoRXaoAWoAVoAVqAFqAFaAFaIDEWILwmpqlYUVqAFqAFaAFagBagBWiBRMDr5s2bFT+0ATVADVAD1AA1QA1QA2Vr4NNPP0093SYCXn/xi18ofmgDaoAaoAaoAWqAGqAGytYA4dUQdodQq1QuUf17teWHNqAGqAFqgBqgBqgBasCmgT8cU0cP9BFeDYPX/9vzsOKHNqAGqAFqgBqgBqgBaiBbA4RXQ6BVqiEjrxRqtlBpD9qDGqAGqAFqgBqgBqABwqtQoyF7wis7Jp0zNUANUAPUADVADbhrgPBqCLRKNQiv7mJlR6ZtqAFqgBqgBqgBaoDwKtRoyJ7wyk5Jx0wNUAPUADVADVAD7hogvBoCrVINwqu7WNmRaRtqgBqgBqgBaoAaILwKNRqyJ7yyU9IxUwPUADVADVAD1IC7BgivhkCrVIPw6i5WdmTaxiQN/PzlWvXN3x5Qn/x1qXr35fnqlc23qmceu1E9+cj1atNDU9WGVZPVoysmqLX3jFOrl41VDyweo+5deKW6+/bL1eI5l6qFM4ep22++WM2ePkjdOm2gumnyBXqPY4TjPOIhPtIhPfJBfsgX+aMclIdyUT7qsWvbUl2v//1yLZfb45KD1AA1kEoNEF6FGg3ZE14JaCYBWtrr8s+PV6q/vXmX2vrkLPX4n6eoFYtGq7k3DlHTxvVRYy49W1084FR1Xvc26oxTmqo2LRuqYxoerg47pJp+kQj6qumf0tISVfvQX6ljjz5CndiqkepyWnPVt+dJathFndTYy7qp6RP6qQW3DlWr775aQ/Bbz85Ru7bdrb7/bHUqb3hp1zOvj/ePYtEA4dUQaJVqEF7pfIrF+RT6Ot9/daEenZxz42A1blQPNfj8U1TX01uols3rq9/WrqFKSg4IBJ8VKlRQpaWlqlatWqpu3brq2GOPVa1atVIdOnRQnTt3Vmeffbbq0aOHOvfcc1W/fv3UhRdeqAYPHqyGDRumRo4cqa644gp11VVXqXHjxqmJEyeqqVOnqunTp6sZM2boPY4RjvOIN2rUKDVixAg1dOhQnQ/yQ769e/dW3bt3V127dlVnnHGGOvnkk1XLli3VMccco4488khVs2ZNVblyZbXffvsFuk6A7+/q1lIntWqkenRtpYF30lW91V2zL1VPrZuudv11KQGXo3rUADUQiwYIr0KNhuwJr4TXQkNd2vJ/9+U79Mjh5KvPVb3Paa0aNzrcE6wddNBB6rjjjlNnnnmmBsNp06apxYsXq8cee0y9/PLL6q233lI7duxQH3/8sfryyy/Vv/71L/Xzzz8b4in8VePHH39U3377rdq9e7fauXOneu+999Qbb7yhXnjhBbVmzRo1f/58NX78eDVw4EB16qmnqoYNG6pKlSqVa8fKlSrqfwYu7NNBT3vY9NA09en2u2O5maVN17we3guoAXcNEF793QMKHpvw6i5WdmTaBhp4Yu00NWF0L9X51GaqerXSnIBVpUoV1axZMz36iRHMBQsWqLVr16qXXnpJw9sPP/xQ8L6chgIAvAD4Z555Rj344INq9uzZ6sorr1TdunVTTZo0USUlJTntjxHbfr1O0kCLKRnsu+y71AA1EKYGCK+G3WEIr+zgYXbwtOQFYL165DmqUf3DsmAJANW3b1913XXXqVWrVunRxH/84x+G9ep0Vwej0q+//rpauXKlmjx5sp4yUa9evax2OqnV7zXIvvnMbIIsf2amBqiBvDVAeDXsvkJ4JbymBTjDug48hY9+gXmmmOs5a9Ys/XO3YV2X1bFZYO/eveqpp57Sc3nPOefsDMxeMews9a9PHsz75hWWvpgPfS41kDwNEF5tDjfuQ8Jr8joRHV/h2qzekb/R0LNkyRI9XzPu/snyg1vgnXfe0SALH9fr7FaEV46+UQPUQGANEF6D++KCpCS8Fg6ECJnJsi3WNEV/wINV3NJhge+++063J9qV/TFZ/ZHtxfYySQOEV8PuCYRXOgiTHEScdXluw02Zn5qxTNSGDRsM662sjlcLfP311+ree+/V82Hh4wiv9HNx+haWnXz9EV69et+I4hFek9+p6BjDaUOBVzyUJQ8AHXbYYRqAsCYqlnnas2dPRD2TxfixwK5du9SmTZv0urVYiqxq1aoaWFu3bq3XxSW8htNH6Gtox2LVAOHVj0eOIC7hlc6oWJ2R/boFXk8//XT1zTff6PVIhwwZoqpXr54ZkUV/qVatml6g/9JLL1Vz585VjzzyiHrzzTd1mgi6bNEWIasMYAmyOXPmqOHDh6sTTzxRYZkytIt8GjVqpMaOHau2bNmibYX2xDl7e/OYvo8aoAa8aoDwatitB069SuUSOnZOZC96DVjh1dpNAbLr169XN9xwg+rVq5c64ogjMqAkwCR7jPgdf/zxerQWb7iaNGmSmjdvnlqxYoUeGcQST1i0H0/Gc1MKP+9/8MEH+iUNsPHy5cvVzJkz9du+8JYwvM2rrPVdYXesr4t/JLC2LtaHtW+EVwKKV0BhPGrFTQOEV7tnjfmY8MrO6tZZiy3cDV5zdVG8OWrz5s1q4cKF+vWrACRMMRCI9bLHgvsAYbxitUuXLnr9WAAvRg3x+lZA77Jly/QIMH4Sf/HFF9W2bds0/H711Vfqp59+ylW1yMLw4gWMhn700Uf67WDPP/+82rhxo17/Fqs13HbbbfpVtKNHj1YXX3yxfoED7NS0aVP9qlu/r5Ft0KCB/qcAb+YC5GIah5d/Agiv9HHF5st4veFrnvAa2a3FW0GE1/BFTseRTJv6gVe33oVXuuI1qH/5y1/Ufffdp98QBdgCvOEtUZiDedRRR3l6FaoXAK5QoYKqWLGiqly5sp7nWaNGDXXIIYdoKK5bt65+7Wrjxo01MGJEGOW3a9dOdezYUQHqsG/btq0Ox3mAJeIDFFHP2rVra9DE1AmMKuMVrgcccIDyC55u14I88WpY1Kl3795qxIgRasqUKfr1sXjDFv5BwKtl//d//9fN5OWGE16T2R/pR9luJmmA8Fquq402AuGVDsIkBxFnXcKAVz+99/vvv1effPKJni+LxfUfffRRPb3gzjvvVLfeequecjBq1Cg1aNAg1bNnT3XqqafqUVqAZc2aNV1fleoGimGHY+T44IMP1vB5wgknqE6dOmkAxc/9eKUrIBQveFi8eLF+1StWb3juuefU9u3b9Rq6UY0cE17p4+L0Kyw7HfojvPq5u0UQl/Cajo5FB5l/O0YNr2F07//3//6f+vnnnxV+wsdP6JifixURMK3h008/1VMMPvzwQ7Vjxw6FRfvffvtt/WrVV155Rf/sjj3m4SIc5xEP8TEvF+mRD/JDvsgf5aA8lJuUjfCaf9+gf6ENi10DhFfDPD7hlU6p2J2SXH8S4dUwd2JkdQiv9HHSx7mnFoJqgPBqmHsnvLIzB+3MaUtHeDXMOYVUHcIrfVzafBWvJ3pNE15DcshhZUN4jb4T0PGYaXPCa1hexax8CK9m9jf6QbZLkjRAeDXLr+ulfbjOK51IkpxIoepKeDXMOYVUHcIr/VuhfAbzLR5tEV5DcshhZcOR1+LpfHS0Zbc14TUsr2JWPoTXsnVPv0D7UAPla4DwapZf58gr36xV9G/WEsdNeDXMOYVUHcJr+Tdm6QPc01bUQG4NEF5DcshhZcOR19xCZQcuPrsQXsPyKmblQ3gtvr5M/802D1sDhFez/DpHXjnyypHX/2iA8GqYcwqpOoRXgkzYIMP8ik9ThNeQHHJY2aRh5PXL/7lXPbB4jLrm8m7q1HbHqtIqJb7eMQ8b8GOGDU5q1UhdPfIctWz+5eqtZ+dECtaE17C8iln5xAWvl13chX6lwL511NAzI/URhNbig1Zpc8KrWX498SOvi+eMUA3qHcqbRIFvEnHAfUnJAWrqNecp/HMiDqSQe8KrYc4ppOrEAa8/fP5n9cemdemXCuyX7l14ZSS+oZB+h3knA4gJryE55LCySerI64ZVk1Wn9sfpm0NpaamaMWOGWrVqlX5PPN4Zz81MC9x8882ZG/qBBx6ocPzCCy+oXbt26Qrj1aSPP/64mjdvnjr22GN1XPxzgn9SCu3kCa9maibfWsUBry89PkNrt3PnzvlWn+lzWAD3rf33r6C2v3h7wf1Cof0O8ye85pB4rEG/iLV0j4UnEV43PTRVVahQQd8chg0bpt577z2PV8tocVqgU6dOGXC98847y63KP//5TzV9+nRVUrJvGsjcG4cU9EZFeC23SRIZIQ54nT/jEq31WbNmJdJmJlf62Wef1bY9+cRjCuoPCJXJgMqo2okjr4Z5haTB6wsbb1bVDizVzmvt2rWGWZPVcbMA/smA1jDaun37drdoOcO3bdumateurdMvnTeyYDcswmtO8yc+MA54vbBPe63X1157LfH2M+0Cpk2bpm17zeXdC+YLogIilpMcQCa8GuYJkgSvbz0zRx1Vp6Z2XBzRMExIZVRHpgoAXGV6QBnRc556+umndbtDrw8uvaogNy3Ca07TJz4wanjd8z/3qd/VPURhOhO38C3Qpk0b7QtWLxtbED9AoEwOUEbZVoTX8PtyXjkmBV5//vtD6oQW9bXTuuKKK/K6ZiaOzgKYzwqN4eN3xNVey+XLl2fyev3J20K/cRFe7RZPx3HU8PrEQ/tGBs8999x0GNCgq8DzDPAlpaWV1AevLwrdB0QJQywrWZBMeDXIEaAqSYHXO2ft+9m5Xbt2hlmQ1SnLAscff7zWmJc5rmXlI+fGjBmj8xt64Wmh37gIr2LldO2jhtebJ1+gNbpo0aJ0GdKAq9m4caO27RmnNAu9/xMmkwWTUbcX4dUAB2CtQhLg9ZudD6hjGh6undbDDz9srT6/G2wBACv0Vbdu3dBq+be//U3VqFFD5/vs+htDvYERXkNrJqMyihpeu591gtYnHyQNXwZXXXWVti2W0IsaXlheccMt4TX8/pxXjkmA15nXXaQdVt++ffO6ViaO1gKY4wp9YepAmNvMmTN1vv16nRTqDYzwGmYrmZNXlPC6863F6tfVq6pDDz3UHAOkqCZNmjTRff/RByaG2vcJpsUNpl7an/BqmCMxHV6//miFqn3or7TDeumllwyzHqvjZoGVK1fqNsPyWGFvmPfWrFkznf8Ta6eFdhMjvIbdUmbkFyW8rr1nnNbl4MGDzbj4FNXi73//u7btb2oeqD7dfndo/d4LuDAO4ZbwapgzMR1e190/QTusiy66yDDLsTplWeC8887T7QaILcS2cOFCnT9eJRvWjaVY4BUj4WGPhheijcPKM0p4nTC6l9bl/fffH1b1mc9/LLB69Wpt2x5nnRBanw/LdzCf9MMt4dUwV2Q6vF45vKt2WPfee69hlmN13CyA5bCgK0wbwIsGCrG9+eabuoxG9Q8N7UYWFF7LgkEv5z766KNCmMg1T7QN4bUwN9tT2u37WfuTTz5xtT9PBLOArBV98+QBofV5Qmdh+kEa7Up4DdZvC5bKdHg9uMYvNaTs3LmzYDawZ7x79259c/+///s/+ykee7CATBnAzaaQW6NGjbQ2Xtl8ayg3s6DwOmnSJIW67N2713G56F/45NouvPBC1aVLl1ynChpGeC3MDXvbC7erigfsrxo2bFjQ9vOa+RdffJGlSfxacdJJJ3lNbly8OnXq6L4U5lShNEIWr6kw/ZvwaphLMBleBSYwvzGK7cMPP1SYniDAgf0xxxyjRowYoXAj4ObNAuPG7Zv3F9byWG6lol3QRtPG9YkVXh955BFdj82bN2dV9a9//asOr1q1qmOkE/N2sQrDjTfemJUmigPYjCOv4d/g7lkwSrd3FOtQy1QIq6+S79K2OEY82QCv+++/vxwmao9VRnA9devUVP/4n/tC6e+EvPD7QJptSng1zGXAIVSpXGKkM5g+oZ92WIChKDY4+t69e6sVK1bom/tdd92lLr/8cjVjxoys4gcMGFBUN/+si/dwgIe0oCu5iXpIEijK+vXrdTmntG0Sin7lnyXrDd9LxTBNonr16uqmm27Kig4wvfTSS9U555yj7KPQW7Zs0XV/8skns9L8+9//Vu+++662XS77IUzCUa71WDKScOxzbdI2P/74o/rggw/UG2+8ob755ptcUTNhn332mS4L+1xbrnognoRLnSXtV199lTn3+eefS3DW3k/9shLaDgT0Cn1jvfySM3Wb4p+ZQm+4Jnys9rV+R/n4BeShhx7KVCXJ8Hr33Xdr2/bv1TaUvl5oLTD/9IEx4TXjSsz4YjK8XntFT+2wlixZUnBjCUyU9y7yHTt26DrZb8YFr2CCCoCm8Cn0hnU0UU7L5vVDuaEFhVdc59lnn60h1XrNDRo0UPfcc4+aN2+ewx7XXXedql+/fuZn3XXr1mkYwfU0bdpU1a5dW6ex/+MEYHn22Wf1P1RiZ4kDsOzZs6d+LSniHXzwwRnAsdYL6aBf7OvVq6c/+I5/yjAibN1eeeUV1aFDBx0XeSIejhFu3XAOH/sm5Vj7C0Ymq1Spolq0aKHriDxbt26dlRTrOcN+qB/OIY5cZ1ZEDwdS70ICxY+716g/Nq2r6/n11197qFV+UdzsXVauSYbX/v37a9vOuXFwKH29kFpg3ukDV7Qp4bUs7xLDOdwUTB15veziLtphPfbYYwW3DEZbYQu30SpUADdP3EwRT24e1hu2fEc8mZ9lvWkjvHv37jo9bsjLli3Lui6MRi1dulTnfcQRR2gIad++vXr66aez4iGfyZMnK8DbyJEjNQB07Ngxc3MHCA0aNEiPBmLaw5AhQ1SUc4ZhHzysVegNo4Uo6+gGh4VyQ8sHXm+44QZ10EEHqZ9//llftvyTAwjbtm2brqdVC2eccYayL6eEf9Iw31o2tDMg9ocffpAgrQ2EA3AxYmrdcINHOMqWDXqzgyFs1rx5cwWdyCbzlJG3bJgqg/Ixlebtt9/WwdhD5wi3TqWR/iBpZW+HV7wiGOVbbfHOO+9ktIt0gHPEsdYF8StXrqz/GZC8ve5RN+RXSKh4edMtugy8US6Kzc3e1rIRx2pDN3jFU/z4xwU2gn4wh9u64aHLadOm6bVrEQefli1bqmuvvdYaraDfq1Wrpst9dv1NBW3HQmqEeScbagmvBe3i/jOHIzIVXgf176gdVnmjof6v2pkCN2XYYuzYsc6T/wnBDdR6M5ZjSYD0d9xxh74BYKkcjOYiDjYAwCGHHKIWL16sMDcSNxXEt48qy00JEAu4kJuK1QZI26NHD4UFuzGqhzIwwof8br75Zg0WEo48EA7YjWID/KO8Qqzvmqv+FStWVIcf+qtQbmj5wOvjjz+urxvghQ2gADv89NNP+vi0005TeLUtNjwICBCzt70+afkjP5UCfmWDPkpLS9XWrVslSO9l9YXbb789Kxx6Qz2eeOKJTDiOR40alTmWL5ibi396ZIPOMB3CvuGfLIycWsFIdGuPa+0vOAddo3yrnu1pMJcZcGwfBT7hhBMU/knzu6FuKLOQ8HDHrUN1GRMnTvRbvUDx3extzQzXbG2jXPCK8xIPbSW6RRvIJq9knT9/vvZpaMPhw4erTZs2SZSC7mXueONGh6u9nzxY0HYspEaYN+G1oB0lxMwL/7tpCJWF4zIVXnufs+/nwrJGQ0MwQSYLLMdVs2ZNPSo1Z84clevnP/vNOJNYKX0TAKBizqJ1g5OHndeuXWsN1gBx5JFHKsztc9swuoa0q1atykSRG4795iE36RdffDETF18Qjp9oo9jEPlHBK0bCq5ZWDuWGlg+8YgF1AJfMe8U8V4x6yjZ37lz9WlscP//886pChQp6RFbOy17meWIuLP4RQtvDprKhLXOteYwRXomL+NYPwgEcsuEY/+zYNzsQDR06VGvHHg/HiIvzstnTSrjoQa4BvwDALhjhwwN9e/bskaiZPbSK14BarwHfAUyYCuF3Q91wzYWEhwv77JtaYX9oz29dvcZ3s7c1Pa65LHiVkfXx48dbkykcI+0zzzyjw72UlZVByAf4hwz1GXLBKQVtw0Lqg3knG1zRfhx5Dblj55sdnIKp8Nr51H1vUZKfYvO9Vi/p//GPf6hrrrlGj241btxYP7xlTWe/GVvPwZYY8bRveOAMkGrfZKoCHpopa0O+1puQwKs9jd9we/owjsU+UcHrySefrEEwjJtDPvAK2+HFDLjRAwrQZlZAlNEj2AfthHmj1g0jtwJZmHKB+Z5Y1gj5II1siGPVgoTLvFoBDfvemsaep+QhadyOJRx7r3FFD9ZrQHqAK1ZbQL+wj0BXqlQpk7+UY91b6+HlO9LimsPQSK48vvrgflX/qFq6jLL+EfVSV69x5JpwXfaP5IFwa7vbR17lVxn7KD6OkVamNU2ZMkUfIy+Muke94R9B1OfOWcML1oa52pVhyQfOMNuQ8Bp1zy+nPDgFU+G1W+eW2mnlGgEt57LyPo25h7ipwj746V42t5sxziOu/SaN8HPPPVefw/lcH2sajDLgxiRzayW+9SaE7wi3b37D7enDOBb7RAWvWEatUknFUG5q+cLrrFmzFObmyRQC/CNk3WrUqKGwggUe7rLOK8ScVrQ32s86j1RsadUHtGHVguQv/wh5+ZUC2rHmKXkgb3xku+yyy7KOJRx7xMN52expJVyms+QqD3FwLZj60a5dO0mibTFw4MDMcb5fUDdcc5g3Mmtem9dep/O3/0OSb73LSi/2hl3tH0mHa7ZqxQ6vMkUA8XJ9rGnxHb8s1KpVS2H6AFbFiGo74IADdP1e3TKzYG1obU9+J7Tm0gDhNaoe77EcOC1T4fX83u2008IDHXFtMmdQbr7Yw2ZybK2XW3i/fv30z/b2m4z1GPngAQg8qIVRNMzBFZBBvvYbCcLsG+L4CbenD+NYHsiJCl4BiwfX/GUoN7V84RUP1sH+WCILo4r2DT/HYi4h5qxaH0KUB7owt9C6yWiqVWuAFqsWJL485GQd7ZVz9j3qaM1TzgsQyTHKcfuZHuHWemCubK5fFzDP1608KUceFpNfILBcnf0hM4kbZF9oeMUbn3CNMmUkSB39prG3Va70qJO1jezwavVtVl9k/W7NF/9kIT9ALNaLteZtjRfm95deeknb9vhm9dTPXz4USj/PBSYMI7CWpwHCa5g9O4S84OBMhdfhF+1bLzSqeWRu5oSN5GlrOHYc57r5u4VPmDBB4afQ8n5yw+ib9UEJqQ/ytd4o8B1h9s1vuD19WMeoG568L/SGmynKqn/Ub0K5qeULr99++61+u1K3bt1yvnwAGmrTpo2GPPnHBDbCvE9cB+Z0yoZ5ywjDx6o1N3hFOjzMhDd94UFB2fDqWYzKWjd7nnLODkSoI0AFPxtbNxwj3HoNoj1rXfEdkGstD/GsqyEgX/lZWtZ7RTqksT48iZ/jZYkwa128fC80vHbvcoKuL0Arqs3eVrnKhQ1hb9ns8LphwwZd7yD+tW/fvqH+gyF1tO/xDwGuAyvPlAcXPE8ALaQGCK/23hnzMRyDqfB69ch9c53wIFWhN+sT3dayZFQIYIINb+GCzbCagH1DuPXmLeflgS3rQzNyzroHvGKKgXWTtNabkICCNR6++w23pw/rGHbAp9CbvHWn+R+OCuXGli+84nrxMBUe+nNbmgw/kVunoYiNZAk1wN5xxx2njj76aL1EGh5ssmqqLHhFXgA+2B7psExarrZAmDVPqUMuIAIwIh9cE85jj1fa2pfpAsjiPPLGMkqAaKQTQJLyoFHkgetEfGgeI9FWfaM+GEHG6KvEQxzkbY8ndS9rL/UqxI1t59tLVI1qpXredVl1CPscrgmfsja7vezwitUc8E+I9Z+mXPnlmoqCNGi7Qm/4hwzXsfyOUaH08UJogHkWBzQTXgvd233mD8dgKrzitZ92B+zz8jxHF/CDQ4ZjxvqpAACUb3/NKW7MCMdPotabKcLkJm0vWPLv2rWrnh6A+YK4yVtvQFi+CHmgfMTHBw8kAXas5UhebmV4DbfHC+sYa13iOjCFoJAbbI1yTm5zTCg3tjDgFXVy0wBsgRFV+2oQYqOnnnpKYc4zpg9gbU1s9vzsx5LWusfIJv65gm4x/9a+ueXhFr53716FukF3iFPWBljFdIeyrgHr82J0GPmtWbOmzLWVUR7i4Z9I+fWjrPJznSskvD5877Vag3ioKMotDHhFfeXhrLZt2+pfffDPj9hLrgfHeEMcluHDeq/4Bw39rtDrvGKZOZSz//4V1F+fnxtKHydoFgdoFqKdCa/iEQzZwzmYCq8P37fvxhBkbUe/5gVowRnLTaFPnz7650y3mzXmLyKudb3M8m7ueLoX8XGjk3LwilPrhhEnwKqUj3PIFx/Z7MdBw7f2kzwAACAASURBVCVd2Hvc6KArAEchNzz0hHLwWs4wnFUY8FrI62XewSyAvgadhKERex4TRvfSedvX1w1WU++p3HyANQd7HIy84nXF9g3/7GBFFPzqI34J82Flg99CXnjZiZzHcaE3rE2MdmsX0j+n9rbjMUHWjwYIr4Xu8T7zh3MwFV6xIDXqh08cKw74NCWj/8cCGPFDm+GGWMitVatWupy/rJ4SCpgQXgvZWvHlXUh47XBSY61BLIXGLVwL4FkB+JGxl3ULpX/7ARXGJdjaNUB4Dbd/550bnIOp8ArxyIoD+O+fWzIsICsOFHJO3Mcff6xvbNWrlYZ2YyO8JkNffmtZKHjd/uLt+iftKF6F7Pea0xAf06pwf1q19OrQ+rgdSHhMSPWqAcKrYV7FdHi9Z8G+eaCjR482zHKsTlkWkHmv9uWfykrj55ysazr4/PDeukN49dMCyYlbKHi9d+EVGq769++fHGMkpKb4pQ33ptLSEvX+1oWE1z2ETK+QWah4hFfDnIfp8LrzrX3vZsfi2Bht45YMC8jUAcx/LcSG5aig3dV3hzcqQ3gtREvFn2eh4BXLN0GDd999d/wXmbIayOuOzzilKcGV4GqEBgivhjkZ0+EV/0WNufRsfZOwrvtomBlZHZsF8LQ8tIVPrqV2bNF9HcryZW1b/z5Up0Z49dUMiYlcCHj96Ys1Cku0Qd9YS5dbuBa44op9o9pTxp4bah8v1Kgc803/yDDhNdw+nnduSYDX916+Q5VWKdE3ildffTXva2YG0VgAD2xBX4CHsDa8llKmJIQ9F47wGlYrmZVPIeD15Sdu1drGG/G4hW8BrHMM3/HI/eMJrxx5NUIDhNfw+3leOSYBXvFfLf4DR10vuOCCvK6XiaOzAEZf8TAL2s1tyTG/tZk9e7bOr8tpzUN3aIRXv62RjPiFgNc7brlE63Do0KHJMEKCaolfauAzflPzl+qTt5eE3s85Spr+UdJCtDHh1TAnkhR4/eSvS9WhtfaB0IIFCwyzIqvjZgH5iR+vi5WF993ilhf+/PPPq5KSfSPw61dOCv2mRngtrwWSeb4Q8DrgvPYasFavXp1Moxhca3kYs8dZJ4TexwsBNcyzOGCY8GqY00gKvMJBrF6279WXqPOjjz5qmCVZHTcLnHfeefpGj6VvggLsJ598ol85ira/7to+BbmpEV7dWjDZ4WHD61cfrlB1j/yN1jRei8stXAvgZQjo5zdNvqAg/ZywWRywGXY7E17D7ed555YkeIUY7759pHZs1apVK/jrR/M2LjPQFgCwyjxVgEQQgO3cubNu90IuWE54Tadgw4bXzQ9fp7XYuHHjdBos5qs67LDDtH0fXzOV8Mr5rsZogPAas2OwF580eAXAzrv5Yu3cjjyyjlq0aJH9knhsoAUArDL/FS8vwIsMvGx4fW779vt+oh12UaeCOjLCq5cWSV6csOEVI4Lwm2PGjEmeMQyv8XvvvadtW7dOTfX39+8taH8Pc2QOmrB+ls2/XL286Ra153/uS8w1hGmPNOZFeDXMeSQRXtEx4CiqllbWju60005Tjz/+eOhLMhnWVImvDgC2U6dOus2guz59+uR8kAsLlGNVicGDB2fijhh8RsFvAphXjXq1aNEi8bbmBeyzwI4dO1TT445TB9f8ZWj66dZ535ufNmzYQDOHbIG77rpL98H+vdqG1l5RgFSn9sdlfBV8iPVz7RU987oW3Ovwj3UU18Ey3KdUEF5D7uz5ZodOZvLrYcvqTO++fIcC1FgdBaYTnHjiiXp5Joy48GOeDTDyuv/++2e1Gx7EatKkicLSQ9b27Hr6H9WWh6+LzHFfObyrLr9J46PVddddp7Zu3ZpvF2P6iC2wd+9etXnzZnX55ZermjWr6/YcfWnXUDT08dtLVLWDSnWe9C2F8S3o/7NvGBxKe5V1/wjzHOAVH8nzi/fvVa8/dZu6dNDpWit4zbmc87P/xwf3q4Nr/JLwasD0CcJrxI68vOKSDK/iBAA3o4aeqf50QkP9rnEr/PB79ihAEuyBxd+HXniawus3pY2j3K+4a4yq958HcmAvrJSAObczZszQUISRYW7mWGD37t1q3bp1asKECapDhw7qgAP++49Rqxa/Uw8uvSo0Ha2991oNI0noR0mu4zOP3Rham0XhO+zwai3zyUeu15rB3hqO728+M1s/iIzR1Q2rJqu9nzyYFQfaRTti5FU+1jyQHv4K6R++71pHemtc6/cfPl+dyW/7i7dnlSnx/vnxSh0Heb+yeWbOOLnqhPS5wq1h+D7nhsFq/YPZq8ZgQGrxnBHq3oVXql3bljrK/HTb3fo6ke6bvz3gOI+yES5l5cpDrs/vnvBqjs/XNUHHSOrIay7x4c03bzw9OyNeEXEa9tMn9FPoQD26tkrd9f3lz1PUmuXj1Dc7czukXG1dyLCvPrhfv3p28PmnqOrV9o20WWGgQYMGauDAgWru3LnqkUceUW+++ab65ptvDOvd6arOl19+qV5//XW1du1aNWfOHDVgwABVp04dB0w2qn+ounrkOeqJtdNy3tzy0U0a/MgNE/trP9K9ywnG+hGAUz7tFHXasuAVdbn8kjNVuzbHZF0TwsSn4J8sfMc/ze+/ulDHAzTKeeters0t/bYX5mWVI/Flj18rK5VUVM2OPUqP6iJvlC/nscdDiQ3q1VJHHFZDjyhj9Lf9SY3VS4/PyIqH60Y9rWnxHf0E+VrDcfz0ozfo+HI9eAAbcTBSfWGfDppF/tSyoa4f4uy0rPM79Zp9q9Yc17iOOrrh4erwQ6qpRbcNzyoDNqlcqaJ++x3qjDzs12atk5/vhFfD7ido3DTBqx8xJi3uXbMvVS2b11cjBp2e1WGTdh1Jqy9A9tEVExT+eejZtZV26OJ87fuqVavqlRV69Oihhg0bpiZNmqTmzZunsHblpk2bNHzt3LlT4adtbkphFPuDDz5QL7/8ssLDecuXL1czZ85UeDsb5jx37dpVTyeR9X3t9sZx0ya/VcMv6qTm33KJeirH6FbS9Fbo+tKPuM9rDGr78uB18exLVcWK+6t/7/5zxnc/tW66hjkpE8BX8YD91cTRvTNxBAKxl3iyd0s/Zex5jriSZvd792igs+b31+fnZQHo5+8u12Boh1L8QwhgxHnJzy+8Is+H7hmXSS/59Dq7lcJc8g9fX5Q59/6rCzLfke7X1Us1FEsajDij/2P0GWG5bGW/NkkbZE94NeyOhcYnvIbvzIJ0jvLSSOe0O5Xy0vF8+O372fa79Vzc5QtGqRsm9lPDBnZSZ5zSTP2+/mGqpOQA7VRzgZY1DECGOb5Y/7ZLly6qb9++GnjHjh2rpk+frqF32bJlas2aNRp8X3zxRbVt2zYF+P3qq6/UTz/9FKs3+eGHHxRGQz/66CP11ltvKbxEYuPGjWrVqlVqyZIl6rbbblNTp05Vo0ePVhdffLE699xz9Rz0pk2bqlq1aqn99tvPk50OrFpZA2r3Li319KBbpw1UDy65St+svjVkpD5JfYx+JHx/UB684lcA9P03nr4tA2S5NFPnsBoa4uSctBX2ElbWHukBgm5xMKqLerhNA0A63F8wAmyfwoBz+BXKev/xC692+EWegHDUye0aMcUB6TB/2HpdWMmhZo2qGdgXG5d1bdb0fr8TXmO93TgLh2gIr+E7M78dw0t8cWRW5+ElHeNE375wrNtevF3//HbfnVcqABceBju3Wxs9Nxs/x3mFN/RRt0+FChVUxYoVVeXKlRVGfWtUr64OOaSWhuK6deuqhg0bKqxHCmDEWrutW7dW7dq1Ux07dtQgiX3btm11OM4jHuJjWsRRRx2lateurUGzevXqqmrVUlWpUiV1wAEHhFJ3QP7v6tZSHU5qrC44t50aN6qHmnvjED1d49n1N+qfT5P283ES+hr9SPj+oDx4Xbdigu7Du/6aPY8To4YYicT8T/j1E5rXz3rwS9rKDeyQftXSq9Vt0wflTJ9Lj3h4DD+942d4TA+wx8G1uD1ghnOXDDg1k8YvvGJqgL08PNsA/2YPl+OP3likz8M+9k/vc1pnwX551yZ5BtkTXp38GGsI4TV8RxakY3hJI46M8JqcNiuvXXe/t1z/7LXl4evVI/eNVwDdBTOHqhlTBqiJY3rruXIX9e2g8KrMU9odq45vVk8DH0YcSir+98EkN7gtZDjKP7hGVT03rmWzeuq0k4/Voz6D+ndUVww7S02++lwN7ZiX9sDiMeqxBybqn0nfeWm+wlSM8mzD84XROf1I+HYtD14X3DpUjx5aNS1zVvGLAn65GX9lTw2uyEviSVvlglcv6SUf+37FotHq1HbHaihE2TLPFvHgM9zuMfbr9AuvufJFGMq011GOxQZSdq69xMW+rGuzxvP7nfAaK6o6C4doOPIavjPz2zG8xJdOnMsBeEnPOMlo5yja6abJ5//nJnW+600jinqwjOg1ST8Svs0FqNz03LFtk6yf87H2Kx4sskOpPR9pK3s8/GPoJb1bfSQcI8KYx4+RWAnD3FM8qCrH1j3qN3JI58w5HOe6H+ElDXYgdYPilUv2rahgLcf6/W9v7lv7174ygTVOru+5ri1XPK9hhFcnP8YaQngN35F57Qx+44kjy+Us/ObF+Mlp90K0FeaP4QEI/NxYiPyZp7n6oh8Jv23s0GnV/5+XX6NBbuuTszJ9DfHx8K01Hh6EKi0t8TRtIFd6zP8urZKd3pq/23c80Q8OwDJViIP7i9ucVzzBb73/4Fehrp1aZF0H8pBRYWuZbvCKFQhwTh68sqbB9x8+/7MetUae9nPlHduvrbz4ZZ0nvMaKqs7CCa/hO7KyOkA+53jTSU5b5dPOUaTF/FL0/eV3jPJ9Q4iifiyjcFqnHwnftnZ4BTS9+PgMde1/+pkV+KBtxAcgCrABPBEHcIhzon/MnUc/veOWSzJhkt4KfABfpEeYNb3kI3u0PT5yjP3sGwbpdDIfV1YbwOiuNR6O7Q9cSZmr7746E1dGXVEXa3oc2+0g5/GQGeavWpfG+urDFZn0S+eN1HXEtCpJg4dmcSzXg7wFwCWO/dokPMie8Orkx1hDIChOGwjfmQXpHOWl4U0nGe1UXjuacJ7wWrxaoh8Jv+0BjLiXWj+1Dj5Q9elxovrojbsywCV9H0/YAwQRH2kxYooHqPAmODt8yihm40aH6/jIw5G+tERdc3k3tWTuCEd6KRN7tH39o36jsCoBygFAo2w7VGI09OgGh+lfZxAPv9J0PrWZes0yeoz8ALontWqk64WHULHGMpaue/3J2zJ1lfJxrfZy5BxezY15/ZgKgRFpjEAjvpzHXur02yN+rddxFVtb4RX1lH8A3K7Nmqef74TXWFHVWTgEQHgN35n56RRe4/Kmk4x28tqeccYjvBavluhHwm972NT6sY4guvVzgB/WKsUDmm8/P1eDGtIhH3savD0L4If4ci5XeqmDxMm1/27XKg2/yA8jpm51xWgw3l6JeLnqJHl/9+kqnQ/iIT7SYZktexovdcMyVxhlxpvFcr1sAW/PwtxXTHfCS21gA6kH9ngQFEtmlXdt1jRevxNenfwYawjhNXxH5rUz+I2Hzo/2Qsf0m5bxk9POUbQV4bV49UA/UrxtH4VvSWsZhNdYUdVZOOE1OY6MN53ktJXpDpzwWrxaoh8p3rY33S+ZXD/Cq5MfYw0hvCbHkfGmk5y2MtkJo26E1+LVEv1I8ba96X7J5PoRXmNFVWfhhNfkODLedJLTViY7YcJrceuIfqS4299032Rq/QivTn6MNYTwmhxHxptOctrKVAcs9eLIa/FqiX6keNte+j/3/jVAeI0VVZ2FE179iziujs+bTnLaKi6NeC2X8Fq8WqIfKd629+ofGM+pEcKrkx9jDSG8OkVqasflTSc5bWWqhqRehNfi1RL9SPG2vfR/7v1rgPAaK6o6Cye8+hdxXB2fN53ktFVcGvFaLuG1eLVEP1K8be/VPzCeUyOEVyc/xhpCeHWK1NSOy5tOctrKVA1JvQivxasl+pHibXvp/9z71wDhNVZUdRZOePUv4rg6Pm86yWmruDTitVzCa/FqiX6keNveq39gPKdGCK9Ofow1hPDqFKmpHZc3neS0lakaknoRXotXS/Qjxdv20v+5968BwmusqOosnPDqX8RxdXzedJLTVnFpxGu5hNfi1RL9SPG2vVf/wHhOjRBenfwYawjh1SlSUzsubzrJaStTNST1IrwWr5boR4q37aX/c+9fA4TXWFHVWTjh1b+I4+r4vOkkp63i0ojXcgmvxasl+pHibXuv/oHxnBohvDr5MdYQwqtTpKZ2XN50ktNWpmpI6kV4LV4t0Y8Ub9tL/+fevwYIr7GiqrNwwqt/EcfV8XnTSU5bxaURr+USXotXS/Qjxdv2Xv0D4zk1Qnh18mOsIYRXp0hN7bi86SSnrUzVkNSL8Fq8WqIfKd62l/7PvX8NEF5jRVVn4YRX/yKOq+PzppOctopLI17LJbwWr5boR4q37b36B8ZzaoTw6uTHWEMIr06RmtpxedNJTluZqiGpF+G1eLVEP1K8bS/9n3v/GiC8xoqqzsIJr/5FHFfH500nOW0Vl0a8lkt4LV4t0Y8Ub9t79Q+M59QI4dXJj7GGEF6dIjW14/Kmk5y2MlVDUq9igFf0l07tj+Mnhw3g92+afIESPXBP30INlK0BwmusqOosnPBatmBN6tCE1+S0lUm6yVWXYoFX+Dd+ctuA8Ep/kss3MCy3LgivTn6MNYTwmluoJnZgK7zixsNPYW1gogbCqlMxwStGX8OyG/NJjr9kW7GtwtQA4TVWVHUWTnhNTgcXeOVIUu6RpLDtEqbjMy0vwmty+r1p2mF9qJ1i1ADh1cmPsYYQXpPjiACvHG0t7Ggr7CsQnGYHTXhNTr9Psw55bdRhUjRAeI0VVZ2FE17pPJLiPKKqJ+E1HX1CfqngtIF0tGdU/Z/lUC+5NEB4dfJjrCGEV3bUXB21mMMIr+noE4TXdLRjMfsiXrs5Gia8xoqqzsIJr+Z0DjoqM9qC8GpGO+TbHwiv6WjHfHXA9NRBGBogvDr5MdYQwis7dhgdO015EF7T0ScIr+loxzT5Fl5LcjVJeI0VVZ2FE16T25noCAvTdoTXwtg1ar0SXtPRjlHrhuVRN7k0QHh18mOsIYRXdtRcHbWYwwiv6egThNd0tGMx+yJeuzkaJrzGiqrOwgmv5nQOOioz2oLwakY75NsfCK/paMd8dcD01EEYGiC8Ovkx1hDCKzt2GB07TXkQXtPRJwiv6WjHNPkWXktyNUl4jRVVnYUTXpPbmegI82+7t5+bq57feFPW5/hm9RQ+9nAcJ9HmO99e7LiW/r3bqiMO+5WaOLq349zXHz2QyOsErFrbbOHMYbodc7Ul2j2Jbck659/naUPaMIgGCK9Ofow1hPDKjhykI6clzbnd2mTeqCUjrm57xE3ida9fOcnzNeLaAbtJvM66dWp6vs6bJp+fyGtMYruwzrzHpEEDhNdYUdVZOOGVjiUNjiXoNay4a7Rn4EHcoOXEne7AqpU9Xecfm9ZN7DVec3k3T9cIn8eRV/q9uPsky0+WBgmvTn6MNYTwmqwORIcXbnvhJ3L0AS+fpP6cDs0MvfA0T9e44NahiYVXAKmXdsQILftRuP2I9qQ9064BwmusqOosnPBKp5N2p1Pe9XmZOpDUKQNy7V6nDiR1yoBcp5epAxihlfjc0/9RA9SAFw0QXp38GGsI4ZUd10vHTXMcL1MHkjxlQNquvKkDSZ4yINfoZeoApwzQ54leuKcWvGqA8BorqjoLJ7yy83rtvGmN52XqQJKnDEi7lTd1IMlTBuQay5s6wCkD9HeiFe6pBT8aILw6+THWEMIrO7CfDpzWuGVNHUj6lAFps/KmDiR9yoBcZ1lTBzhlgP5OdMI9teBHA4TXWFHVWTjhlR3YTwdOa9yypg6kYcqAtJvb1IE0TBmQayxr6gCnDNDfiU64pxb8aIDw6uTHWEMIr+zAfjpwWuOWNXUgDVMGpN3cRpjTMGVArtFthJlTBujrRCPcUwt+NUB4jRVVnYUTXtmJ/XbitMbH6CP6g/WTphFJtJvbCHPaRiRzjTBzygB9XVp9F6+r8NomvDr5MdYQwmvhRU/HkgwbY/TRCq74nqYRSegw1whzGkckcz2chhFZ9sVk9EW2E9vJNA0QXmNFVWfhhFc6CdOcRFz1wQNLdnhNy0NMVpvapw6kcUTSPnUAI7FWG/A7/R41QA340QDh1cmPsYYQXtmB/XTgtMe1Th1I25QBaTv71IG0TRmQ67ROHcBIrIRzT59HDVADfjVAeI0VVZ2FE17Zif124jTHt04dSNuUAWk369SBNE4ZkOu0Th3glAH6OdEF99RCEA0QXp38GGsI4ZUdOUhHTmsa69SBNE4ZkHaTqQNpnDIg1yhTBzhlgD5ONME9tRBUA4TXWFHVWTjhlZ05aGdOazpMF0jrlAFpM5k6kNYpA3KdAFdOGaCPEz1wTy0E1QDh1cmPsYYQXtmZg3bmtKbDdIG0ThmQNsPUgTRPGZDrBLhyygB9nOiBe2ohqAYIr7GiqrNwwis7c9DOnNZ0mC6Q5ikD0m7FAHXPbbiJD2rtoY8TzXNPLQTVAOHVyY+xhhBe2ZmDduYg6e6afaljOSpokB/aoJg18Oz6GwnZhGxqwGANEF5jRVVn4YRXwmsQCA2aRuC1UqVKih/agBqopP9xI7zSDwf1qUwXjXYIr05+jDWE8BqN8Olg9tlZ4HXq1Kmx6p6F0wImWKBXr16EV4NH2+i3eX8UDRBeTfCYljoQXtk5pXNGsSe8Wjofvxa9BQiv9L9R+F2Wkb/OCK+GuWvCa/6ipmPwbkPCq2EOgNWJ1QKEV+++g36WtopTA4TXWF2ls3DCKx1ClA6B8OrsgwwpXgsQXul/o/S/LCu43givhvlpwmtwMdMR+Lcd4dUwB8DqxGoBwqt/H0K/S5vFoQHCa6yu0lk44ZWOIEpHQHh19kGGFK8FCK/0v1H6X5YVXG+EV8P8NOE1uJjpCPzbjvBqmANgdWK1AOHVvw+h36XN4tAA4TVWV+ksnPBKRxClIyC8OvsgQ4rXAoRX+t8o/S/LCq43wqthfprwGlzMdAT+bUd4NcwBsDqxWoDw6t+H0O/SZnFogPAaq6t0Fk54pSOI0hEQXp19kCHFawHCK/1vlP6XZQXXG+HVMD9NeA0uZjoC/7YjvBrmAFidWC1AePXvQ+h3abM4NEB4jdVVOgsnvNIRROkICK/OPsiQ4rUA4ZX+N0r/y7KC643wapifJrwGFzMdgX/bEV6DOQD0U7fPCy+8ECxTpordAoRX/z6Efpc2i0MDhNfY3WV2BQivdARROgLCa3b/83rkBq4INwFe+/btq+Ha6/Uw3j4LEF7pf6P0vywruN4Ir4Z5bcJrcDHTEfi3HeE1mAMQeJ0xY4aGVQCr9WPPde/eveqNN95Qu3fvtp/KOsb51157TX3wwQfqxx9/zDpnPbCW9e2331pPqc8//zwzKpx1ggflWoDw6t+H0O/SZnFogPBarjuLNgLhlY4gSkdAeA3Wv63wWlYOO3fuVL17987AJNJ16NAhK8mePXvU/PnzVYsWLbLiHXzwwWrMmDFZcXHQsWPHrHjIs3///gplrVy5UtWrV89x/vTTT3fkwwCnBQiv9L9R+l+WFVxvhFen/4o1hPAaXMx0BP5tR3gN1t29wOtnn32WgchKlSqpli1bZo4BmNbtyiuvzJxr3rx55jvKweiubAMGDMicA5BKPbp3766jWMPkHPaEV7Fg2XvCq38fQr9Lm8WhAcJr2b4s8rO40VSpXKLuXXglP7RBwTUwqP++UbypU6dGrvUkFyhgCLC0f+S6evbsqeGyWbNm6qOPPtLB+Llf0lpt/v3336s1a9aob775RsfDFAOJN3z4cEfa8ePHSzFqy5Yt6uWXX84coz6SNhPIL54sIPA6cUzvgvc9+nje46iB4BoQeN26daunvp3kSL9IQuXlpsO9+9PctE34trGCVBL6Sdx1dNOgjHBi7qrEueKKK7Lmw5500kn6HEZR7duzzz6r1q1bpxYvXqy6dOmi40meX3/9dSZP5A2o3b59uz0LDdNStuMkA8q0gMCr2I/78H0NbUqbhqkBwmuZLi26k2jUCvsfoBo0acoPbVBwDfz6kMM0EBFe/fVxcb72UVccY8NDVxLHbS9QivijR49WBx54YM401njz5s1TmIJgzfOCCy7IehCMI6/+2tIaW+D18KPqFbzv0cfzHkcNBNdA1YOqaT9IeLV6sBi/46ZUUrmKenHX9/zQBgXXwLhbFmgHQHj11+kFHgVW7anxEJY1Ti7IlbRW2MTcV1lJANCKPKzwinLwYNasWbMUpiNIGf369ctUwZpfJpBfPFlA4PXOtVsK3vfo43mPowaCa6Du75to//fpp5966ttJjpSYaQOE1+CCpjPwZzvCazCXJtAoAJorF1k9wA6f9rh9+vTRTtj6ENcXX3yhqlevngWvH374oT2pwoNaUpcdO3bo84RXh5k8BxBe/fkP+lvaKy4NEF49u7VoIuJGRHilQ4jKIRBeg/VrAcay4NUKkffcc48eUcVDWQhv3bp1pmAZYUWemOuKOa/W5bUEfjEii2W2kB754FjilZaWZtaFRXpr/XA8YsSITHn84m4Bwit9b1S+l+XkpzXCq7sfi+UM4TU/QdMh+LMf4TVYN7fCoVsOGD21gqmkkb2kW7JkSQY25VzTpk3VQw89lDXyal2pQOLJ3grRKLd27dqOPKU87t0tQHj15z/ob2mvuDRAeHX3Y7Gcwc2II690CFE5BMJrsG4OWJRPeTk88MADatSoUeqcc85RQ4YM0el27dqVlWzTpk1q5MiRqlu3burqq69W1ikAAqaA1+XLl6uJEycqvP4V0w2mTJmiR2CzMlNK4SEGzJ8FPONFBxj55Va+BQiv9L1R+V6Wk5/WjIRnBgAAIABJREFUCK/l+7NIYxBe8xM0HYI/+xFeI+3eLMxwCxBe/fkP+lvaKy4NEF4Nc6aEVzqDKJ0B4dUwB8DqxGoBwiv9b5T+l2UF1xvhNVZX6Syc8BpczHQE/m1HeHX2QYYUrwUIr/59CP0ubRaHBgivhvlpwisdQZSOgPBqmANgdWK1AOGV/jdK/8uyguuN8Bqrq3QWTngNLmY6Av+2I7w6+yBDitcChFf/PoR+lzaLQwOEV8P8NOGVjiBKR0B4NcwBsDqxWoDwSv8bpf9lWcH1RniN1VU6Cye8BhczHYF/2xFenX2QIcVrAcKrfx9Cv0ubxaEBwqthfprwSkcQpSMgvBrmAFidWC1AeKX/jdL/sqzgeiO8xuoqnYUTXoOLmY7Av+0Ir84+yJDitQDh1b8Pod+lzeLQAOHVMD9NeKUjiNIREF4NcwCsTqwWILzS/0bpf1lWcL0RXmN1lc7CCa/BxUxH4N92hFdnH2RI8VqA8Orfh9Dv0mZxaIDwapifJrzSEUTpCAivhjkAVidWCxBe6X+j9L8sK7jeCK+xukpn4YTX4GKmI/BvO4HX9u3bK35oA2qgvYIPvnPtFkV/4t+f0Ga0WVQaILw6+THWEMIrO39UnR/lCLxCd/zQBtTAPg0QXumHo/TDLMu/3givsaKqs3DCq38Rs+MHt9n9T2xVJn7O6NVfHdXwGHXptdONrJ+JNktKndCu+Ny+cqPRbUu/Etyv0Ha0XaE1QHh18mOsIYRXdvpCd/ok5H96z37qiLoN1LBx1/Pn213p6hNoV3yWbXyBbZuytk2Cb2Ed0+FPCK+xoqqzcMJrOjoWHWR+7dhn6Cg9jWHa7csIOCkDnCMb/F637brXPmTbpqxt6ffy83u0n3f7EV6d/BhrCOHVu3jZ0dNrK8JretuW8JretqVPZttGpQHCa6yo6iyc8MrOH1XnN7kcwmt6+wHhNb1ta7JPYd3SpTvCq5MfYw0hvKarg9FhBmtPwmswuyVBb4TX9LZtEvTHOqZDf4TXWFHVWTjhNR0diw4yv3YkvOZnP5P1R3hNb9uarDvWLV26I7w6+THWEMJrujoYHWaw9iS8BrNbEvRGeE1v2yZBf6xjOvRHeI0VVZ2FE17T0bHoIPNrR8JrfvYzWX+E1/S2rcm6Y93SpTvCq5MfYw0hvKarg9FhBmtPwmswuyVBb4TX9LZtEvTHOqZDf4TXWFHVWTjhNR0diw4yv3YkvOZnP5P1R3hNb9uarDvWLV26I7w6+THWEMJrujoYHWaw9iS8BrNbEvRGeE1v2yZBf6xjOvRHeI0VVZ2FE17T0bHoIPNrR8JrfvYzWX+E1/S2rcm6Y93SpTvCq5MfYw0hvKarg9FhBmtPwmswuyVBb4TX9LZtEvTHOqZDf4TXWFHVWTjhNR0diw4yv3YkvOZnP5P1R3hNb9uarDvWLV26I7w6+THWEMJrujoYHWaw9iS8BrNbEvRGeE1v2yZBf6xjOvRHeI0VVZ2FE17T0bHoIPNrR8JrfvYzWX+E1/S2rcm6Y93SpTvCq5MfYw0hvKarg9FhBmtPwmswuyVBb4TX9LZtEvTHOqZDf4TXWFHVWTjhNR0diw4yv3YkvOZnP5P1R3hNb9uarDvWLV26I7w6+THWEMJrujoYHWaw9iS8BrNbEvRGeE1v2yZBf6xjOvRHeI0VVZ2FE17T0bHoIPNrR8JrfvYzWX+E1/S2rcm6Y93SpTvCq5MfYw0hvKarg9FhBmtPwmswuyVBb4TX9LZtEvTHOqZDf4TXWFHVWTjhNR0diw4yv3YkvOZnP5P1R3hNb9uarDvWLV26I7w6+THWEMJrujoYHWaw9iS8BrNbEvRGeE1v25qov0Vrn1RuHxPrG0edjm93isInjrKDlkl4jRVVnYUTXunYg3bmNKUjvKa3HxBe09u2Jvog3FPdPoWqr8ByofIPO9984BXXGnZ9vORHeHXyY6whhFc6di8dN+1xCK/p7QeE1/S2rYl+CffUS6+dnnP0tRD1ffajb9URdRvo8gqRfyHyDAqvz/1t37UWok7l5Ul4jRVVnYUTXunYy+u0xXCe8JrefkB4TW/bmuibBF691s3LSOLDr7yv4fTR1z9yjDouXf+8Hun1ko/XOv35+e1q9XPb1DMffp1V3pb3/q7DveZjjWetnxu8ojyUu2zji2rT9s+zykZeyzbsu1Zrvtbv5aW3xvX7nfDq5MdYQwivdOx+O3Ea4xNe09sPCK/pbVsTfZFXeB04apw6qEZNDZ7Y9x40wgFsk25brI5p3jJrGkL7Lt0zUIcRXpRn/8AugEWEW6FR7GWHR4mL89Y8AZIIe+DJN1THs3pmyvlDyxPVDXeuyNRD8s21Hzx6oqp6UHWd9rDf1lU3LV6p57uiDtb4181frg6tUzdTBuoOm0icc84fknUO5615lJde8gm6J7zGiqrOwiGAkspVMgIJ2rBMxxtEkjVAeE2vfgmv6W1bE30O7qkAwLLqBiirXbe+mrn8IR0PexxbwRTpAa8XXnaNWrzuGQ22o6+/TQOc5A/oFPCU79gjrTXcXhc3eAUgntGrv7rl7j/r9BjJvHfTK7rM84Zcph585q2sesy+/9Fyr/OX1Wqou9c/r+Ot2PK6Or1nv5zwivxxXTLq6udacX3lpbfbwO8x4dXJj7GGEF7p2P124jTGJ7ymtx8QXtPbtib6IoFXK0zKd9RXYPCySTdngR+OkfaO1Y9nhduvsVqNg9WZ5w7IxHGDVLdw5OcGr21O6ZLJV8oFaNeodah66v1/ZJ1rcWIHB2xLGuzlOsffujArHaZA4Dqto6bWdNbvbtdqjVPWd3v6suKWd47wGiuqOgsnvNKxl9dpi+E84TW9/YDwmt62NdE34Z6a6yOwNn3h/fq8AK11j3TXzJifBXu4xnWvfaRHLxH3d42bZoGfG6S6hSM/N3hFGrtN6/3+WD2qiXPWz0VXjFe/qlnLEV/S37z4QX2dcmzd28u3nvNyrdb49u9lpbfH9XNMeHXyY6whhFc6dj8dOK1xCa/p7QeE1/S2rYn+CPdU+Vk/V/1GTZmRE24FeK1pZc5rSUkldfChtVWDJs08g2dY8FqxpKTM+ua6RoRdMe1WX/Aq11qpSqmqVfu3quGxzV2vNVeZXtLnSuc1jPAaK6o6Cye80rF77bxpjkd4TW8/ILymt21N9EnlwevkOUtcoc56PYDYXHnZRy3dINUtHGVgNFVGgnFcVlxA8wUjrnIdYbXW2fq9rOu0X8NZfQbqa7WPOtvjST2t5eC72Kq89PZ0fo4Jr05+jDWE8ErH7qcDpzUu4TW9/YDwmt62NdEf5QJOaz3nPrBeg1p5Dzud0rW3Hn20psV3/FTvBTxlzumNdz3gAE/U0UseKK/Fn9qrtp26OvKw18t+LNeJOa72c0fUa5hVfmnVA/WDXPZ4btdqj4dVCvAgmD3cnt5+3s8x4TVWVHUWTnilY/fTgdMal/Ca3n5AeE1v25roj8qDV9QZy19hZYEn3v0iC7jwpL1cU99hV6oDKpao+554NROGn8bt4Llu64c6bMrcuzPxkMcT7+zW4V16n58VjiWuSg88KAseZUQTeylf9tMX3qfzuemulVnnsA7rbfc+khUmaWSP67ROg0D4jKWrHdfw+z+0UMe1OjErr3krN+ils3JBtv1avaaXegXZE16d/BhrCOGVjj1IR05bGsJrevsB4TW9bWuiH/ICr6g3oAzQ1WPAUIWfzY9scIyGOrkmQCby+kPLP2kA7NS9rzqrz4X6gS4r0CE+QBhx+1w8SmG5K8lDfk6vXFpV54HRycYtWmWWq5J4ZcEr4mANVeSPtV6RZ/M2JyssgWUHU8lP9hhd/nWtw3R5iIv6t2p/mhp+7fVZ8Cz1xAjvRVdcq0489UzVukMnfS32a0U9MHLbf/ho1e6Ms/W1SnrExXfk45Ze6uZ3T3iNFVWdhUMIXOeVzt1vR05bfMJrevsA4TW9bWuiHwI84eOlbhNnLVJd+w5UmCKAp/fxU7813dLHnlM9Lxymz8t8ToxI2vPf8NYnasBlYzUQWhf2R14Y6eza96JMHhjttdcR8IqwXCOvUp/bH9yoBo+ZpMsAcGMUWM6VtccLDpA3wPLK62appz/4ylG+1BNwDXvALgiz1xNhbteK6/SSvqy6lnWO8Orkx1hDCK907GV12GI5R3hNbz8gvKa3bYvFP/E649cw4TVWVHUWTniNv1PQMcXfBoDXX1arrqbdvszTaALbLP4289oGgFe07brXPmTb7kpOu3ltX8Zjm0ahAcKrkx9jDSG8suNH0fFNKmPWPWv1/C1o38sn19OyJl0P6/LfPowlfby0KeJgHUna7r+2oy1oC2rAXQOE11hR1Vk4nDjnvLoLlp05nbapUlrVE+QQcJLV/vLgiReADbJ2Jf1BsvTA9mJ7haUBwquTH2MNIbyyc4fVuZOUzzn9B3uC16tvmsvRuYT91Oz1H5P7N7/Gtk1Y2ybJx7Cu6bq3El5jRVVn4YTXdHUwOkxv7el16gCnDHizp0m68/KPySFHHEVwJbhSA9SAZw0QXp38GGsI4TV5N2eTQCGpdcFyMeX9tMwpA8nsG17+MeGUgWS2bVL9DeudfL0RXmNFVWfhhNfkdyo6xmBt2PGsXmUCLKcMBLOrCXosb+oApwwkt21N0BfrUHz6Ibw6+THWEMJr8XVCOt59bT7tP2+NcRuB5ZSB5PaNsqYOcMpActuVvottF5cGCK+xoqqzcMIrnUFcziDucsuaOsApA8nuF2VNHeCUgWS3bdx+g+UXp34Ir05+jDWE8FqcHZEOeF+7u00d4JSB5PcLt6kDnDKQ/Lal/2IbRq0BwmusqOosnPBKJxC1EzCpPLepAwSc5PeLXFMHOGUg+e1qkv9gXYpHT4RXJz/GGkJ4LZ7OR0frbOtcUwcIOE47JVE7uaYOAGiTeC2sczo0yXZMbjsSXmNFVWfhhNfkdiY6wnDazj51gHMiw7GrCfqEf7N+ALQm1It1SI/G2JbF0ZaEVyc/xhpCeC2OjkcH697O9qkDnDLgbquk6cj6jwnmwCat/qxverTItkx2WxJeY0VVZ+GE12R3KDrE/NsPS2LJ6BynDORvT5M0af3HhFMG0tW2JumMdUm/tgivTn6MNYTwmv5OR8dafhtjaSz0BU4ZKN9WSdKTdU4zpwykq22TpEPWNfnaI7zGiqrOwgmvye9UdIz5tyGWxkJf4JSB/G1pmh4xdYBTBtLXrqbpjPVJt8YIr05+jDWE8JruDkeH6q19MXWAUwa82SppmsLUAU4ZSGfbJk2LrG9ydUh4jRVVnYUTXpPbmegIw207QA5tGq5NTbAnpg5wykD62tUEbbEOxaMrwquTH2MNIbwWT+czwdGOu2WBKj3wIH4C2qBB46ZGAjbbND9N37l2i5HtaoLPYB14jzJBAwKvW7dujZXZoij8F1EUkm8ZhFc6higdA+AVmuMnmA1MhdcKFSqwTfPQNeGVfjhKP8yy/OuN8JovbYacnvDqX8Ts+MFtJvA6depU9dNPP/Hj0QYff/yxhkOT4bWkpITt6bE9Rfu9evXS7Up4De5T6I9puyg0QHgNGT7zzY7wyo4fRceXMqzwmq92iyl9UuC1mNokjGslvNL/im/k3mwtEF7D8Hgh5kF4NbvDpM2hEV6DdV7CazC7mZ6K8Er/mzYfn9brIbwa5k0Jr3SeUTobwmswB0B4DWY301MRXul/o/S/LCu43givhnlTwmtwMdMR+Lcd4TWYAyC8BrOb6akIr/59CP0ubRaHBgivhnlTwisdQZSOgPAazAEQXoPZzfRUhFf63yj9L8sKrjfCq2HelPAaXMx0BP5tR3gN5gAIr8HsZnoqwqt/H0K/S5vFoQHCq2HelPBKRxClIyC8BnMAhNdgdjM9FeGV/jdK/8uyguuN8GqYNyW8BhczHYF/2xFegzkAwmswu5meivDq34fQ79JmcWiA8GqYNyW80hFE6QiSDq+7du2KpQcTXmMxe8ELJbzS/0bpf1lWcL0RXgvuDv0VQHgNLmY6Av+2CxteZ8yYoU4//fRyP/56Re7Yffr0UfXq1ct9ssChxQSvO3bsUJMnT1YtWrTQb5/q2LGjmjZtmnriiSfUv/71rwJbOtrsCa/+fQj9Lm0WhwYIr9H6xnJLI7zSEUTpCAoBrwBY6weath7jexgb8hk+fHgYWfnOo1jgFeDatGlTdcwxx+g2fOGFF9T111+v2rRpo0aNGuXbbqYnILzS/0bpf1lWcL0RXg3zpoTX4GKmI/Bvu7Dh1d6dAJjQdNq2YoHXVatW6fbbtGlT2pow5/UQXv37EPpd2iwODRBec7qw+AIJr3QEUTqCuOAVI3iYXoBt3bp1qnfv3pljhOE8fpoeMGCAGjRokB71++KLL7I6pkxPkEBrnoDmiy66SHXv3l1NmjRJvf322xItlH2xwOudd96p4fWf//ynJ7vZ7W6fVoDz0u7yHccXX3xxJtxe0GWXXeY4N2XKFIVpI/jgu70cex5ejwmv9L9R+l+WFVxvhFevXi2ieITX4GKmI/BvuzjhFVpfunSpat68uRozZowaO3ZsppfhXOvWrfVP04Cc9u3bq7Zt26p///vfmTi54BXp5s6dq95//32d58iRI/XP3gh/9dVXM2nz/VIs8PrMM89oeF25cmW5JkM7YYoB9vjgHw+04eeff55Ji3C027hx49Q555yj59LiGP/AoI0+/fTTTFz5gnBMVZAN+VrLwXd7ORLX757w6t+H0O/SZnFogPDq17sVOD4cdUnlKioOMbDM4nNCccNrw4YNFeZVlre9/vrrDohyg1f7PNi33npLpx0/fnx5xXg+XyzwCoMMHTpU2+/MM89UK1asyGmjjRs36jhvvvlm1vm6deuqq6++OhMGeIWP69+/fyZMvtSuXVuPtssx9gK17777rg6+5557HOW88cYbOsxajjUPP98Jr8XnA3nfS2abE179eLYI4hJek9mRkuoA44bXDRs2eOpV3333nQYUwI9sbvCK6QP27dhjj1U9evSwBwc+LiZ4hZGefvppddppp+k2gN03b96cZTusQNC5c+esMBxgOgBGRmUTeN25c6cEZfajR49WderUyRzjS9euXbPydSsHdbKWk5WJjwPCK/1vUn15sdWb8OrDsUURVeB15vKHFD+0QaE10GvgcA0kU6dOLYi8BVbsmQMwoXW3uZTbt2/XPz1jFFUgFfGDwqvkYa9H0GOB10OO+K2R/XS/ChVUSUlJ0MtzTbdmzRrVs2dP3XbW1QaOOOKITDuJrWWPdpPNTQ84LyOomPKBDfNYkfa+++6T5MprOZkEPr8IvI4Yf6OR7Vpof8D8ec9JigYIrz6dW6Gjw1nzQxtErYG44DVXfxLAGTFihFq8eLH+6fjZZ5/V/cI0eI26nfyUVwh4lfaSNvr66691UKVKldTll1+uH7TDPyb2jz2dHNv3jRs3zkwdWLBggW7zvXv3ZqJ5LSeTwOcXgVc/dmZc+mtqID4NbN261WcvT170//77b3Dd0Qn2r1BBXXTGKfzQBgXXQOujG2pAMAVe8cYs9AHrw1vorrt37zYSXg+sUqXgbRTEF+y3334FGXkV1ykj59hjwwsMvEzLEOiVfOz7mTNnKsyDxoYH9C644IKsKF7LyUrk40DgtfMJLYxs1yBaYBreS9OogV9WrqzvCYRXHw6ukFFx465cUqK+37KOH9qg4Bq4Y/QIo+B127Ztuj74edq6zZ8/30h4bVrvqIK3URBfUKFA0wakTQRCZfkyTCGA78q1JNkPP/wgyfS0D8Rz2zDKivPvvfee3mPE3bqVVc6ePXusUQN9F3jdMudmI9s1iBaYhvfSNGqgyZG/1T4i1wolgTq/wYncPaZBlSa80tFE6WhMg1eADh68wagblmfCB8CCpbLwk7Fp0wbSDq+Yt9qyZUt17bXXKqwogKf9sfwY/JS1LeBCEVa9enW1cOFCPW3grrvuUpdccknWGq0CvWW5XDwYNn36dJ1frnj2cu644w69eoG9PrnSlhdGeKX/jdL/sqzgeiO8lufNIj5PeA0uZjoC/7aLAl4BQPYNPzfnCkc8LJ2FxeerVq2aASdMJ0B8K6Dg2JqH5Ck/ZVvLtMe1ngvyXR7YSju8Tpw4UXXr1k01adJET0M48sgj9Qsl3N64hRdLYN4q/FijRo10WuQhG9rP2mYSbt0/9thjOg7m0LptWOu1QYMGmXLwMgqrNtzSlRdOePXvQ+h3abM4NEB4Lc+bRXye8EpHEKUjKDS8Rtx9IiuuWOA1MoMaUhDhlf43Sv/LsoLrjfBqiNOUahBeg4uZjsC/7Qiv0vP87Qmv/uyVlNiEV/8+hH6XNotDA4RXw7wq4ZWOIEpHQHgN5gAIr8HsZnoqwiv9b5T+l2UF1xvh1TBvSngNLmY6Av+2I7wGcwCE12B2Mz0V4dW/D6Hfpc3i0ADh1TBvSnilI4jSERBegzkAwmswu5meivBK/xul/2VZwfVGeDXMmxJeg4uZjsC/7QivwRwA4TWY3UxPRXj170Pod2mzODRAeDXMmxJe6QiidASE12AOgPAazG6mpyK80v9G6X9ZVnC9EV4N86aE1+BipiPwbzvCazAHQHgNZjfTUxFe/fsQ+l3aLA4NEF4N86aEVzqCKB0B4TWYAyC8BrOb6akIr/S/UfpflhVcb4RXw7wp4TW4mOkI/NuO8BrMARBeg9nN9FSEV/8+hH6XNotDA4RXw7wp4ZWOIEpHkAZ4xWtBg7wadPny5WrChAnq559/9u0FCK++TeYrAV7xG6RNUQja9Pbbb/dVnkQmvNL/Rul/WVZwvRFexWsZsie8BhczHYF/2+ULrwAMvKu+vPfVP/roo57iBemGXsrPlS/gFf2N8Oq0jtgU7VbWhnidOnUKDJpueQNe0TZBtpKSEsLrFv++gP6TNkuSBgivQbxjAdMQXulAonQgYcArNIvPG2+84doz2rdvr9q0aRMYSFwzViowFBNe3a2K9mzRooVCu7ltaG9p+6CjpG55E17pB6P0gywreXojvLp5z5jCcTOoXFKi2JmS15mS2GZhwSt+br3oooty9povv/xSQ868efMIrxGNiFWoUEFhBDLoBj80Z84c3V5ov1wb2lt+Zie80l8l0f+xzsnVLeE1l1eOMYzwmtzOlERHGBa8PvTQQ65gOmXKFA1Szz//fM44n332mZo2bZoaMGCA6tevn56z+Prrr+fshYAkQFO3bt3U1VdfrXbs2OE68oq4w4cPVz169FDjx49X9jw58prTxDoQfkhGP9F+uTbEkXbPBa8rVqxQo0eP1u2DPY5zbWhDtCXaFG2LvKRse3zERVuiTUeNGqVWr15tj6K1xjmv9KNJ9Mess3fdEl4dri/eAMKrd/Gyo+dvq7DgFb2mevXqasmSJY4OVLt2bXXJJZeop556ygGvTzzxhKpZs6Zq2rSpGjNmjBo7dqw6++yzVWlpqXr88cez8gLUoH8AcvEde6ST+ZnWyBJ30KBBauLEifoncHuehFerxbK/C7z27t1bof3sG9oZ7Y0NcWFv6zZ48GBHWyEewq0bYBRtKO0PDeC7tF+uuCeccIJuU7RtrrI55zV/v0DfShuargHCq9U7GvAdzpjTBug4onIcYcLrVVddpdq1a5fVizZt2qQBA3v5bo0AmAEcAWKsG6AJUCrbjz/+qIHWDklr1qzJAKzEffvtt3WZdpBu3Lix6tChg0RThNeMKRxf4Icw+rl27dpM+1kjoZ3R3tjsAPnKK6/oMLSNdcMx4uK8bBg9Pfjgg7PaH1qAJhDXuiHuwIEDrUHqzjvvVJUrV1bbtm3LhBNe6T+j8p8sJz6tEV4zLs+ML3DYhNf4OkSxOaMw4fW1117TwPHOO+9kOtOFF16oWrZsqY/Xr1+fBSR79+7Vx3YgRWQBXeyxPfnkkzquHXJxDn3GCrpTp07VQLNnzx6dVv7g52/E3bVrlw4ivIplnHvYCfCKrUaNGgrtKBvaF+fR3tjw3dqGsL+1PSQd9gjHeWzfffedTovRVvtmH3ndvXu3jmv/h+TVV1/V4StXrsxkQXil/yw2P16M10t4zbg8M77gRkB4pfONyhmFCa/oQfhJd9KkSbozffvtt2q//fZTs2fP1scyiic9DSAKvVvBQ84BMHFu6dKlOmjZsmWqQYMGcjpr36hRoyxYwnQCQFKuD/IUKCO8Zpkx68BqJ8xHRTuiPbGhfdHOsiGuFV7F/nLeukeb4Dy2Dz74QLfxPffcY42iv0MTyFe2devW6eNcbYoRdWv5hFf6z6j8J8uJT2uEV/GOhuzhsAmv8XWIYnNGYcPrwoULVd26dXVvWrx4scJT7z/88IM+tgPJm2++qYFky5Ytjt73/fff63NYoQAb9q1bt3bEQ4AAjZzs3r27atu2rQYaQI39Q3gVS7nvrfAq/2SgPbGhfdHOstnhFQ9ToU1ybQhH+2CT9pfRdWv8zZs3Z8ErypZy7O0px5Ke8Er/WWx+vBivl/AqHs+QPeGVjjdKRxQ2vKIbQcN/+ctf1KmnnqrwUI1sMtIpx/hZH3Hnz58vQZn91q1b9bmHH35Yh2HKQbVq1TLnrV/s8Iq5mPIwkTWe/bvUhy8psFtmXxsK5ONsq1atdHuiXdFm1g3HAEjZsBpAWfAqc2Wl/efOnStJM3usFmAtR+YxY1/eRnilD43Sh7KsePRGeC3PE0Z8Hg6bI6/xdIZidEKFgFf8LDxkyBANH9YHaRYtWpQFJOhaZ555Zs4RVTycg74gsCJzHu0/MUu4FZYQB2ntce1dmfBqt8h/j2E/K7zef//92qZoV/nZX2IjrhVeZW7z9u3bJYre49jeLm7tf/HFF+u41gww8o6VKMrbCK/0n8Xoy4vtmgmv5XnCiM/DuRNe6XyjckSFgFc8yFOxYsWseZHoRrleUoC1P6F5ABGmFWDdUIAQwuwjsieffLIOx0/9XJBYAAANJ0lEQVTWACvs8RYoAJAVXlEWIAd5IK+NGzcqPOmO79Z4hFd35wbbWeEVMRGGdpUHtSS12FmOsT/xxBP1Emhoc+SDPZZEs0/9sLY/5rViw/JpWBcW+Vo3+acEWsF3TDfBdAKs5WutK+GV/jMq/8ly4tMa4dXqHQ34DodNeI2vQxSbMwoDXq1AKF0IYXhAy7rdcsstWfAo5zC/EUtYAW4wNQCAIyAjcbDHz8z9+/dXRx55pF5NAA8NIZ4dSiUNwrFmaKVKlTQIYUkm65PtgFc87MVpA2Kx/+7RflYgxJmRI0fmbD/Eha2tm7QVHrKDT8NDVRMmTFA//fSTNZr+DoBFW2LJK7StjOzm0hW00rFjx8xSWsjbXle0KV9SQB9abL682K6X8OpwpfEGEF7pdKN0QvnCa7y9Jb7SP/74Yw1lTesdZeSrnPN9PWx8lo23ZHnd7ZY5NxvZrlH6BpbFe5HJGiC8xusrHaUTXukwonQYhFdHF/QUQHj1ZKbERSK80v9G6X9ZVnC9EV4Nc6+E1+BipiPwbzvCazAHQHgNZjfTUxFe/fsQ+l3aLA4NEF4N86aEVzqCKB0B4TWYAyC8BrOb6akIr/S/Ufrf8sp6cs4Mdf2QAQr78uIW23nCq2HelPBK5xmlEyK8BnMAhNdgdjM9FeGV/hf+F8B4avPjMp9z25+kxvbrpR69eVqkEAloBRNEDa+Lx+5bqvD9lUsjvV4/9z7Cq2HelPBK5+mnA+cbl/AazAEQXoPZzfRUhFf6X4FX3IsBsfgM6nyqala/rgbJgWecEhnQRQGvgHT7fQTl5gq3x4vzmPBqmDclvNJ5RukQCK/BHADhNZjdTE9FeKX/hf8FsOJebPfFMiL5yI1THOfsccM4LjS8PjBlXM7rDKPuhc6D8GqYNyW80nkWutNb8ye8BnMAhNdgdjM9FeGV/hf+0Q1e8TM67tFzRw3PwCviAjJ3PLBEYVQWI5a3DB+cOX/fxLFqVK9uqmubljrfjTOnZ85ZfTG+Lx8/RmGKwgWdOui4ueAV5eFjT4u4ucKfX3CbnvKAfPG5edgg9fKiuWrjrdPV+ad10NcjeUp6L3ld3vNstfq6CWXWY8Mt16ur+vTU1z6uf2/1yqK5jvj26/B6THg1zJsSXuk8vXbeMOIRXoM5AMJrMLuZnorwSv8LvwqIyzXy+uGqZTp84ZiRGQhDvCfnzlCnNP+DGnLW6eris05X908aq89LPr3bn6jGX3CePof4AolWH35ptzPVsXV/qwCFV/burrq0+qO6rEdXXR5gUuICjnOlF9CVeNg/ctNUVaWkRDWrf5TOF3D9q9JSDdvIQ+on3yXfXHk9NuO6rLxQT+Tb+YQWavt9izL1k7Qzhg1Sxzf6nS532Nmd9bXh2t+9/65MXGtd/X4nvBrmTdG4fMMWHajfjhw0vhVev/zyS8WPNxskBV7Znt7aU+xEeKXvhS8VqLP71ZmXDtEwCZCTc7hnn9riOMco5FvLFqjSypUcoInRSqR55vZbM3lgOgKgEmkkX+zP/lOrvOAVoNv9pNbq84cfyMpXynC7TgFQiYf9had31PWx5oXvGFEGeEtcSYsH3CQMe4z24ronXHBeVrg1jp/vhFfCayhC8iM6xjXnBiHwCqfCj38bmPyGLban//YUm/ENW+b4qDjuFwJ1ADF8MNKKh7agD4ysWuuEMIw+WsPwHZCGc3YgxbnWRzdUJx/XJJPm5OOOdeSLeAKC2Ev+XkdesTICyi9rhQS5Tslb9lKuHP/90VU6L0xrkDDZIwzlIA7CJK21zhK38W+P0DAtx/nsCa+EV4cY8xEU0ybL6QNe6x9ai5+ANjAVXtmm+Wma8JosPxb2fUegDlCGD/rTOSe2Uismj3PcL3Ee8zrtdeh7ysk6nT0cx4O7dFKH1fhVJs3hv67uGKFFvFwg6BVeAdyoW1nLXcl12uso5Uo4ABx5bb/3v9MD5JzEFUiXY+wljuxRd3zkOJ894ZXwGoqQ8hEh0xb3jYLtz/anBqgBkzTgBnW56gioQ3z7Ofyc/qfGv3eEIx7mv5ZUrJg5h++58sgFgl7hVaY47Fm/OlOOvY5u1ynlSvwXFs7W8JorL4mLOIgvx9hLetkTXoMB5y+CJYs2FToC57zSkUtn555aoAaoAWogWg24QV2udnCDV6wwgHmsudLgAS487CTn8D1feL39iuEaMCXPB6eO18fP3TErU46ck73bdQqASryPVi93zUviIg7iyzHhNTx2JLxuidYBiPC5p92pAWqAGqAGkqIBN6jLVX83eJU1YbG3psNyUUhjfchJVhqwxsN3rDqAuFYQxAoEv6xcOStPxMWDWYgreeQqR87JHkt+IY19CSsBUImHfcvfN8iqs5zDlAmck2NJa62znOPIazCgJbwSXjMdTDoT97yhUgPUADVADVg1EAa8Ij8sdwU4vPXSIfrBKTxjgOWwrJCJeAKamCeL1Qgemj5J3XDJQNWnQzsd1wqCcy4fqsPw4BjiYZku1Pe6QRc48r1t5CU6DOfX3jBFryOLJa4kv8dn3Zg5j3rY561abSIwjnLxkBY++I5rsQI64TUYoJaVivBKeCW8UgPUADVADVADZWogLHgF/CGvo+vU1pCHB78AqFYolO9YOqvtscfotVTr/ObXmXiAQ4FNibvoqssyr6tFnnipAdZPtUMx4gOG/9iwvqpUUlH9vs7hakCnjln5ybViWS95mEoAVMqT/d3XjtajrNVKq6hf/7JUtftDY7X+lv8uG4Z4ktZeZ5zjyGtZiOp+jvBKh5XTaUjH5J6jL9QANUANUAPUgPka4GoD7rAbyxn858QHtszvOHRubCNqgBqgBqgBaiAeDRBeY0FU90IJr/F0BDog2p0aoAaoAWqAGkiGBgiv7hwZyxnCazI6Dh0c24kaoAaoAWqAGohHA4TXWBDVvVDCazwdgQ6IdqcGqAFqgBqgBpKhAcKrO0fGcobwmoyOQwfHdqIGqAFqgBqgBuLRAOE1FkR1L5TwGk9HoAOi3akBaoAaoAaogWRogPDqzpGxnCG8JqPj0MGxnagBaoAaoAaogXg0QHiNBVHdCyW8xtMR6IBod2qAGqAGqAFqIBkaILy6c2QsZwivyeg4dHBsJ2qAGqAGqAFqIB4NEF5jQVT3Qgmv8XQEOiDanRqgBqgBaoAaSIYGCK/uHBnLGcJrMjoOHRzbiRqgBqgBaoAaiEcDhNdYENW9UMJrPB2BDoh2pwaoAWqAGqAGkqEBwqs7R8ZyhvCajI5DB8d2ogaoAWqAGqAG4tEA4TUWRHUvlPAaT0egA6LdqQFqgBqgBqiBZGiA8OrOkbGcIbwmo+PQwbGdqAFqgBqgBqiBeDRAeI0FUd0LJbzG0xHogGh3aoAaoAaoAWogGRogvLpzZCxnCK/J6Dh0cGwnaoAaoAaoAWogHg0QXmNBVPdCCa/xdAQ6INqdGqAGqAFqgBpIhgYIr+4cGcsZwmsyOg4dHNuJGqAGqAFqgBqIRwOE11gQ1b1Qwms8HYEOiHanBqgBaoAaoAaSoQHCqztHxnKG8JqMjkMHx3aiBqgBaoAaoAbi0QDhNRZEdS+U8BpPR6ADot2pAWqAGqAGqIFkaIDw6s6RsZwhvCaj49DBsZ2oAWqAGqAGqIF4NEB4jQVR3QslvMbTEeiAaHdqgBqgBqgBaiAZGiC8unNkLGcIr8noOHRwbCdqgBqgBqgBaiAeDRBeY0FU90IJr/F0BDog2p0aoAaoAWqAGkiGBgiv7hwZyxnCazI6Dh0c24kaoAaoAWqAGohHA4TXWBDVvVDCazwdgQ6IdqcGqAFqgBqgBpKhAcKrO0fGcobwmoyOQwfHdqIGqAFqgBqgBuLRAOE1FkR1L5TwGk9HoAOi3akBaoAaoAaogWRogPDqzpGxnCG8JqPj0MGxnagBaoAaoAaogXg0QHiNBVHdCxV4rX9oLcUPbUANUAPUADVADVAD1IBTA+ClTz/91B2oUnLmF0m4DjQGP7QBNUANUAPUADVADVADZWuA8GoI2X755ZeKH9qAGqAGqAFqgBqgBqiB8jVgCL4VrBqJGHkt2NUzY1qAFqAFaAFagBagBWiBRFmA8Jqo5mJlaQFagBagBWgBWoAWKG4LEF6Lu/159bQALUAL0AK0AC1ACyTKAoTXRDUXK0sL0AK0AC1AC9ACtEBxW4DwWtztz6unBWgBWoAWoAVoAVogURYgvCaquVhZWoAWoAVoAVqAFqAFitsChNfibn9ePS1AC9ACtAAtQAvQAomyAOE1Uc3FytICtAAtQAvQArQALVDcFiC8Fnf78+ppAVqAFqAFaAFagBZIlAUIr4lqLlaWFqAFaAFagBagBWiB4rYA4bW4259XTwvQArQALUAL0AK0QKIsQHhNVHOxsrQALUAL0AK0AC1ACxS3BQivxd3+vHpagBagBWgBWoAWoAUSZQHCa6Kai5WlBWgBWoAWoAVoAVqguC1AeC3u9ufV0wK0AC1AC9ACtAAtkCgL/H/W2JKS7KVQ6gAAAABJRU5ErkJggg==;" vertex="1" parent="1">
          <mxGeometry x="70" y="790" width="687" height="372" as="geometry" />
        </mxCell>
        <mxCell id="3qqZnPuphbkmfEI1Cb5F-4" value="特征平台" style="rounded=0;whiteSpace=wrap;html=1;" vertex="1" parent="1">
          <mxGeometry x="270" y="950" width="190" height="40" as="geometry" />
        </mxCell>
        <mxCell id="3qqZnPuphbkmfEI1Cb5F-5" value="entities" style="shape=table;startSize=30;container=1;collapsible=1;childLayout=tableLayout;fixedRows=1;rowLines=0;fontStyle=1;align=center;resizeLast=1;" vertex="1" parent="1">
          <mxGeometry x="126" y="1410" width="180" height="220" as="geometry" />
        </mxCell>
        <mxCell id="3qqZnPuphbkmfEI1Cb5F-6" value="" style="shape=partialRectangle;collapsible=0;dropTarget=0;pointerEvents=0;fillColor=none;top=0;left=0;bottom=1;right=0;points=[[0,0.5],[1,0.5]];portConstraint=eastwest;" vertex="1" parent="3qqZnPuphbkmfEI1Cb5F-5">
          <mxGeometry y="30" width="180" height="30" as="geometry" />
        </mxCell>
        <mxCell id="3qqZnPuphbkmfEI1Cb5F-7" value="PK" style="shape=partialRectangle;connectable=0;fillColor=none;top=0;left=0;bottom=0;right=0;fontStyle=1;overflow=hidden;" vertex="1" parent="3qqZnPuphbkmfEI1Cb5F-6">
          <mxGeometry width="30" height="30" as="geometry" />
        </mxCell>
        <mxCell id="3qqZnPuphbkmfEI1Cb5F-8" value="" style="shape=partialRectangle;connectable=0;fillColor=none;top=0;left=0;bottom=0;right=0;align=left;spacingLeft=6;fontStyle=5;overflow=hidden;" vertex="1" parent="3qqZnPuphbkmfEI1Cb5F-6">
          <mxGeometry x="30" width="150" height="30" as="geometry" />
        </mxCell>
        <mxCell id="3qqZnPuphbkmfEI1Cb5F-9" value="" style="shape=partialRectangle;collapsible=0;dropTarget=0;pointerEvents=0;fillColor=none;top=0;left=0;bottom=0;right=0;points=[[0,0.5],[1,0.5]];portConstraint=eastwest;" vertex="1" parent="3qqZnPuphbkmfEI1Cb5F-5">
          <mxGeometry y="60" width="180" height="30" as="geometry" />
        </mxCell>
        <mxCell id="3qqZnPuphbkmfEI1Cb5F-10" value="" style="shape=partialRectangle;connectable=0;fillColor=none;top=0;left=0;bottom=0;right=0;editable=1;overflow=hidden;" vertex="1" parent="3qqZnPuphbkmfEI1Cb5F-9">
          <mxGeometry width="30" height="30" as="geometry" />
        </mxCell>
        <mxCell id="3qqZnPuphbkmfEI1Cb5F-11" value="name" style="shape=partialRectangle;connectable=0;fillColor=none;top=0;left=0;bottom=0;right=0;align=left;spacingLeft=6;overflow=hidden;" vertex="1" parent="3qqZnPuphbkmfEI1Cb5F-9">
          <mxGeometry x="30" width="150" height="30" as="geometry" />
        </mxCell>
        <mxCell id="3qqZnPuphbkmfEI1Cb5F-21" value="" style="shape=partialRectangle;collapsible=0;dropTarget=0;pointerEvents=0;fillColor=none;top=0;left=0;bottom=0;right=0;points=[[0,0.5],[1,0.5]];portConstraint=eastwest;" vertex="1" parent="3qqZnPuphbkmfEI1Cb5F-5">
          <mxGeometry y="90" width="180" height="30" as="geometry" />
        </mxCell>
        <mxCell id="3qqZnPuphbkmfEI1Cb5F-22" value="" style="shape=partialRectangle;connectable=0;fillColor=none;top=0;left=0;bottom=0;right=0;editable=1;overflow=hidden;" vertex="1" parent="3qqZnPuphbkmfEI1Cb5F-21">
          <mxGeometry width="30" height="30" as="geometry" />
        </mxCell>
        <mxCell id="3qqZnPuphbkmfEI1Cb5F-23" value="id" style="shape=partialRectangle;connectable=0;fillColor=none;top=0;left=0;bottom=0;right=0;align=left;spacingLeft=6;overflow=hidden;" vertex="1" parent="3qqZnPuphbkmfEI1Cb5F-21">
          <mxGeometry x="30" width="150" height="30" as="geometry" />
        </mxCell>
        <mxCell id="3qqZnPuphbkmfEI1Cb5F-12" value="" style="shape=partialRectangle;collapsible=0;dropTarget=0;pointerEvents=0;fillColor=none;top=0;left=0;bottom=0;right=0;points=[[0,0.5],[1,0.5]];portConstraint=eastwest;" vertex="1" parent="3qqZnPuphbkmfEI1Cb5F-5">
          <mxGeometry y="120" width="180" height="30" as="geometry" />
        </mxCell>
        <mxCell id="3qqZnPuphbkmfEI1Cb5F-13" value="" style="shape=partialRectangle;connectable=0;fillColor=none;top=0;left=0;bottom=0;right=0;editable=1;overflow=hidden;" vertex="1" parent="3qqZnPuphbkmfEI1Cb5F-12">
          <mxGeometry width="30" height="30" as="geometry" />
        </mxCell>
        <mxCell id="3qqZnPuphbkmfEI1Cb5F-14" value="project_name" style="shape=partialRectangle;connectable=0;fillColor=none;top=0;left=0;bottom=0;right=0;align=left;spacingLeft=6;overflow=hidden;" vertex="1" parent="3qqZnPuphbkmfEI1Cb5F-12">
          <mxGeometry x="30" width="150" height="30" as="geometry" />
        </mxCell>
        <mxCell id="3qqZnPuphbkmfEI1Cb5F-15" value="" style="shape=partialRectangle;collapsible=0;dropTarget=0;pointerEvents=0;fillColor=none;top=0;left=0;bottom=0;right=0;points=[[0,0.5],[1,0.5]];portConstraint=eastwest;" vertex="1" parent="3qqZnPuphbkmfEI1Cb5F-5">
          <mxGeometry y="150" width="180" height="30" as="geometry" />
        </mxCell>
        <mxCell id="3qqZnPuphbkmfEI1Cb5F-16" value="" style="shape=partialRectangle;connectable=0;fillColor=none;top=0;left=0;bottom=0;right=0;editable=1;overflow=hidden;" vertex="1" parent="3qqZnPuphbkmfEI1Cb5F-15">
          <mxGeometry width="30" height="30" as="geometry" />
        </mxCell>
        <mxCell id="3qqZnPuphbkmfEI1Cb5F-17" value="description" style="shape=partialRectangle;connectable=0;fillColor=none;top=0;left=0;bottom=0;right=0;align=left;spacingLeft=6;overflow=hidden;" vertex="1" parent="3qqZnPuphbkmfEI1Cb5F-15">
          <mxGeometry x="30" width="150" height="30" as="geometry" />
        </mxCell>
        <mxCell id="3qqZnPuphbkmfEI1Cb5F-18" value="" style="shape=partialRectangle;collapsible=0;dropTarget=0;pointerEvents=0;fillColor=none;top=0;left=0;bottom=0;right=0;points=[[0,0.5],[1,0.5]];portConstraint=eastwest;" vertex="1" parent="3qqZnPuphbkmfEI1Cb5F-5">
          <mxGeometry y="180" width="180" height="30" as="geometry" />
        </mxCell>
        <mxCell id="3qqZnPuphbkmfEI1Cb5F-19" value="" style="shape=partialRectangle;connectable=0;fillColor=none;top=0;left=0;bottom=0;right=0;editable=1;overflow=hidden;" vertex="1" parent="3qqZnPuphbkmfEI1Cb5F-18">
          <mxGeometry width="30" height="30" as="geometry" />
        </mxCell>
        <mxCell id="3qqZnPuphbkmfEI1Cb5F-20" value="labels" style="shape=partialRectangle;connectable=0;fillColor=none;top=0;left=0;bottom=0;right=0;align=left;spacingLeft=6;overflow=hidden;" vertex="1" parent="3qqZnPuphbkmfEI1Cb5F-18">
          <mxGeometry x="30" width="150" height="30" as="geometry" />
        </mxCell>
        <mxCell id="3qqZnPuphbkmfEI1Cb5F-43" value="projects" style="shape=table;startSize=30;container=1;collapsible=1;childLayout=tableLayout;fixedRows=1;rowLines=0;fontStyle=1;align=center;resizeLast=1;" vertex="1" parent="1">
          <mxGeometry x="356" y="1430" width="180" height="160" as="geometry" />
        </mxCell>
        <mxCell id="3qqZnPuphbkmfEI1Cb5F-44" value="" style="shape=partialRectangle;collapsible=0;dropTarget=0;pointerEvents=0;fillColor=none;top=0;left=0;bottom=1;right=0;points=[[0,0.5],[1,0.5]];portConstraint=eastwest;" vertex="1" parent="3qqZnPuphbkmfEI1Cb5F-43">
          <mxGeometry y="30" width="180" height="30" as="geometry" />
        </mxCell>
        <mxCell id="3qqZnPuphbkmfEI1Cb5F-45" value="PK" style="shape=partialRectangle;connectable=0;fillColor=none;top=0;left=0;bottom=0;right=0;fontStyle=1;overflow=hidden;" vertex="1" parent="3qqZnPuphbkmfEI1Cb5F-44">
          <mxGeometry width="30" height="30" as="geometry" />
        </mxCell>
        <mxCell id="3qqZnPuphbkmfEI1Cb5F-46" value="UniqueID" style="shape=partialRectangle;connectable=0;fillColor=none;top=0;left=0;bottom=0;right=0;align=left;spacingLeft=6;fontStyle=5;overflow=hidden;" vertex="1" parent="3qqZnPuphbkmfEI1Cb5F-44">
          <mxGeometry x="30" width="150" height="30" as="geometry" />
        </mxCell>
        <mxCell id="3qqZnPuphbkmfEI1Cb5F-47" value="" style="shape=partialRectangle;collapsible=0;dropTarget=0;pointerEvents=0;fillColor=none;top=0;left=0;bottom=0;right=0;points=[[0,0.5],[1,0.5]];portConstraint=eastwest;" vertex="1" parent="3qqZnPuphbkmfEI1Cb5F-43">
          <mxGeometry y="60" width="180" height="30" as="geometry" />
        </mxCell>
        <mxCell id="3qqZnPuphbkmfEI1Cb5F-48" value="" style="shape=partialRectangle;connectable=0;fillColor=none;top=0;left=0;bottom=0;right=0;editable=1;overflow=hidden;" vertex="1" parent="3qqZnPuphbkmfEI1Cb5F-47">
          <mxGeometry width="30" height="30" as="geometry" />
        </mxCell>
        <mxCell id="3qqZnPuphbkmfEI1Cb5F-49" value="Row 1" style="shape=partialRectangle;connectable=0;fillColor=none;top=0;left=0;bottom=0;right=0;align=left;spacingLeft=6;overflow=hidden;" vertex="1" parent="3qqZnPuphbkmfEI1Cb5F-47">
          <mxGeometry x="30" width="150" height="30" as="geometry" />
        </mxCell>
        <mxCell id="3qqZnPuphbkmfEI1Cb5F-50" value="" style="shape=partialRectangle;collapsible=0;dropTarget=0;pointerEvents=0;fillColor=none;top=0;left=0;bottom=0;right=0;points=[[0,0.5],[1,0.5]];portConstraint=eastwest;" vertex="1" parent="3qqZnPuphbkmfEI1Cb5F-43">
          <mxGeometry y="90" width="180" height="30" as="geometry" />
        </mxCell>
        <mxCell id="3qqZnPuphbkmfEI1Cb5F-51" value="" style="shape=partialRectangle;connectable=0;fillColor=none;top=0;left=0;bottom=0;right=0;editable=1;overflow=hidden;" vertex="1" parent="3qqZnPuphbkmfEI1Cb5F-50">
          <mxGeometry width="30" height="30" as="geometry" />
        </mxCell>
        <mxCell id="3qqZnPuphbkmfEI1Cb5F-52" value="Row 2" style="shape=partialRectangle;connectable=0;fillColor=none;top=0;left=0;bottom=0;right=0;align=left;spacingLeft=6;overflow=hidden;" vertex="1" parent="3qqZnPuphbkmfEI1Cb5F-50">
          <mxGeometry x="30" width="150" height="30" as="geometry" />
        </mxCell>
        <mxCell id="3qqZnPuphbkmfEI1Cb5F-53" value="" style="shape=partialRectangle;collapsible=0;dropTarget=0;pointerEvents=0;fillColor=none;top=0;left=0;bottom=0;right=0;points=[[0,0.5],[1,0.5]];portConstraint=eastwest;" vertex="1" parent="3qqZnPuphbkmfEI1Cb5F-43">
          <mxGeometry y="120" width="180" height="30" as="geometry" />
        </mxCell>
        <mxCell id="3qqZnPuphbkmfEI1Cb5F-54" value="" style="shape=partialRectangle;connectable=0;fillColor=none;top=0;left=0;bottom=0;right=0;editable=1;overflow=hidden;" vertex="1" parent="3qqZnPuphbkmfEI1Cb5F-53">
          <mxGeometry width="30" height="30" as="geometry" />
        </mxCell>
        <mxCell id="3qqZnPuphbkmfEI1Cb5F-55" value="Row 3" style="shape=partialRectangle;connectable=0;fillColor=none;top=0;left=0;bottom=0;right=0;align=left;spacingLeft=6;overflow=hidden;" vertex="1" parent="3qqZnPuphbkmfEI1Cb5F-53">
          <mxGeometry x="30" width="150" height="30" as="geometry" />
        </mxCell>
      </root>
    </mxGraphModel>
  </diagram>
</mxfile>
